<?xml version="1.0" encoding="utf-8" standalone="no"?>
<!DOCTYPE svg PUBLIC "-//W3C//DTD SVG 1.1//EN"
  "http://www.w3.org/Graphics/SVG/1.1/DTD/svg11.dtd">
<svg xmlns:xlink="http://www.w3.org/1999/xlink" width="864pt" height="360pt" viewBox="0 0 864 360" xmlns="http://www.w3.org/2000/svg" version="1.1">
 <metadata>
  <rdf:RDF xmlns:dc="http://purl.org/dc/elements/1.1/" xmlns:cc="http://creativecommons.org/ns#" xmlns:rdf="http://www.w3.org/1999/02/22-rdf-syntax-ns#">
   <cc:Work>
    <dc:type rdf:resource="http://purl.org/dc/dcmitype/StillImage"/>
    <dc:date>2023-08-03T13:17:28.061366</dc:date>
    <dc:format>image/svg+xml</dc:format>
    <dc:creator>
     <cc:Agent>
      <dc:title>Matplotlib v3.7.0, https://matplotlib.org/</dc:title>
     </cc:Agent>
    </dc:creator>
   </cc:Work>
  </rdf:RDF>
 </metadata>
 <defs>
  <style type="text/css">*{stroke-linejoin: round; stroke-linecap: butt}</style>
 </defs>
 <g id="figure_1">
  <g id="patch_1">
   <path d="M 0 360 
L 864 360 
L 864 0 
L 0 0 
z
" style="fill: #ffffff"/>
  </g>
  <g id="axes_1">
   <g id="patch_2">
    <path d="M 108 320.4 
L 777.6 320.4 
L 777.6 43.2 
L 108 43.2 
z
" style="fill: #ffffff"/>
   </g>
   <g id="patch_3">
    <path d="M 138.436364 320.4 
L 158.897785 320.4 
L 158.897785 139.282379 
L 138.436364 139.282379 
z
" clip-path="url(#pf4ebdfcb9a)" style="fill: #1f77b4"/>
   </g>
   <g id="patch_4">
    <path d="M 164.01314 320.4 
L 184.474561 320.4 
L 184.474561 226.78216 
L 164.01314 226.78216 
z
" clip-path="url(#pf4ebdfcb9a)" style="fill: #1f77b4"/>
   </g>
   <g id="patch_5">
    <path d="M 189.589916 320.4 
L 210.051337 320.4 
L 210.051337 272.956187 
L 189.589916 272.956187 
z
" clip-path="url(#pf4ebdfcb9a)" style="fill: #1f77b4"/>
   </g>
   <g id="patch_6">
    <path d="M 215.166692 320.4 
L 235.628113 320.4 
L 235.628113 290.964058 
L 215.166692 290.964058 
z
" clip-path="url(#pf4ebdfcb9a)" style="fill: #1f77b4"/>
   </g>
   <g id="patch_7">
    <path d="M 240.743468 320.4 
L 261.204889 320.4 
L 261.204889 296.043201 
L 240.743468 296.043201 
z
" clip-path="url(#pf4ebdfcb9a)" style="fill: #1f77b4"/>
   </g>
   <g id="patch_8">
    <path d="M 266.320244 320.4 
L 286.781665 320.4 
L 286.781665 289.925142 
L 266.320244 289.925142 
z
" clip-path="url(#pf4ebdfcb9a)" style="fill: #1f77b4"/>
   </g>
   <g id="patch_9">
    <path d="M 291.897021 320.4 
L 312.358442 320.4 
L 312.358442 242.019589 
L 291.897021 242.019589 
z
" clip-path="url(#pf4ebdfcb9a)" style="fill: #1f77b4"/>
   </g>
   <g id="patch_10">
    <path d="M 317.473797 320.4 
L 337.935218 320.4 
L 337.935218 170.796152 
L 317.473797 170.796152 
z
" clip-path="url(#pf4ebdfcb9a)" style="fill: #1f77b4"/>
   </g>
   <g id="patch_11">
    <path d="M 343.050573 320.4 
L 363.511994 320.4 
L 363.511994 122.775164 
L 343.050573 122.775164 
z
" clip-path="url(#pf4ebdfcb9a)" style="fill: #1f77b4"/>
   </g>
   <g id="patch_12">
    <path d="M 368.627349 320.4 
L 389.08877 320.4 
L 389.08877 109.500131 
L 368.627349 109.500131 
z
" clip-path="url(#pf4ebdfcb9a)" style="fill: #1f77b4"/>
   </g>
   <g id="patch_13">
    <path d="M 394.204125 320.4 
L 414.665546 320.4 
L 414.665546 94.493572 
L 394.204125 94.493572 
z
" clip-path="url(#pf4ebdfcb9a)" style="fill: #1f77b4"/>
   </g>
   <g id="patch_14">
    <path d="M 419.780901 320.4 
L 440.242322 320.4 
L 440.242322 110.423612 
L 419.780901 110.423612 
z
" clip-path="url(#pf4ebdfcb9a)" style="fill: #1f77b4"/>
   </g>
   <g id="patch_15">
    <path d="M 445.357678 320.4 
L 465.819099 320.4 
L 465.819099 108.461216 
L 445.357678 108.461216 
z
" clip-path="url(#pf4ebdfcb9a)" style="fill: #1f77b4"/>
   </g>
   <g id="patch_16">
    <path d="M 470.934454 320.4 
L 491.395875 320.4 
L 491.395875 108.922956 
L 470.934454 108.922956 
z
" clip-path="url(#pf4ebdfcb9a)" style="fill: #1f77b4"/>
   </g>
   <g id="patch_17">
    <path d="M 496.51123 320.4 
L 516.972651 320.4 
L 516.972651 131.201924 
L 496.51123 131.201924 
z
" clip-path="url(#pf4ebdfcb9a)" style="fill: #1f77b4"/>
   </g>
   <g id="patch_18">
    <path d="M 522.088006 320.4 
L 542.549427 320.4 
L 542.549427 128.546917 
L 522.088006 128.546917 
z
" clip-path="url(#pf4ebdfcb9a)" style="fill: #1f77b4"/>
   </g>
   <g id="patch_19">
    <path d="M 547.664782 320.4 
L 568.126203 320.4 
L 568.126203 126.699956 
L 547.664782 126.699956 
z
" clip-path="url(#pf4ebdfcb9a)" style="fill: #1f77b4"/>
   </g>
   <g id="patch_20">
    <path d="M 573.241558 320.4 
L 593.702979 320.4 
L 593.702979 137.319983 
L 573.241558 137.319983 
z
" clip-path="url(#pf4ebdfcb9a)" style="fill: #1f77b4"/>
   </g>
   <g id="patch_21">
    <path d="M 598.818335 320.4 
L 619.279756 320.4 
L 619.279756 138.820638 
L 598.818335 138.820638 
z
" clip-path="url(#pf4ebdfcb9a)" style="fill: #1f77b4"/>
   </g>
   <g id="patch_22">
    <path d="M 624.395111 320.4 
L 644.856532 320.4 
L 644.856532 112.732313 
L 624.395111 112.732313 
z
" clip-path="url(#pf4ebdfcb9a)" style="fill: #1f77b4"/>
   </g>
   <g id="patch_23">
    <path d="M 649.971887 320.4 
L 670.433308 320.4 
L 670.433308 77.640052 
L 649.971887 77.640052 
z
" clip-path="url(#pf4ebdfcb9a)" style="fill: #1f77b4"/>
   </g>
   <g id="patch_24">
    <path d="M 675.548663 320.4 
L 696.010084 320.4 
L 696.010084 56.4 
L 675.548663 56.4 
z
" clip-path="url(#pf4ebdfcb9a)" style="fill: #1f77b4"/>
   </g>
   <g id="patch_25">
    <path d="M 701.125439 320.4 
L 721.58686 320.4 
L 721.58686 68.982422 
L 701.125439 68.982422 
z
" clip-path="url(#pf4ebdfcb9a)" style="fill: #1f77b4"/>
   </g>
   <g id="patch_26">
    <path d="M 726.702215 320.4 
L 747.163636 320.4 
L 747.163636 120.928203 
L 726.702215 120.928203 
z
" clip-path="url(#pf4ebdfcb9a)" style="fill: #1f77b4"/>
   </g>
   <g id="matplotlib.axis_1">
    <g id="xtick_1">
     <g id="line2d_1">
      <defs>
       <path id="meded516e2f" d="M 0 0 
L 0 3.5 
" style="stroke: #000000; stroke-width: 0.8"/>
      </defs>
      <g>
       <use xlink:href="#meded516e2f" x="148.667074" y="320.4" style="stroke: #000000; stroke-width: 0.8"/>
      </g>
     </g>
     <g id="text_1">
      <!-- 0 -->
      <g transform="translate(146.167074 334.275) scale(0.1 -0.1)">
       <defs>
        <path id="SimHei-30" d="M 225 2537 
Q 250 3200 412 3587 
Q 575 3975 875 4225 
Q 1175 4475 1612 4475 
Q 2050 4475 2375 4112 
Q 2700 3750 2800 3200 
Q 2900 2650 2862 1937 
Q 2825 1225 2612 775 
Q 2400 325 1975 150 
Q 1550 -25 1125 187 
Q 700 400 525 750 
Q 350 1100 275 1487 
Q 200 1875 225 2537 
z
M 750 2687 
Q 675 2000 800 1462 
Q 925 925 1212 700 
Q 1500 475 1800 612 
Q 2100 750 2237 1162 
Q 2375 1575 2375 2062 
Q 2375 2550 2337 2950 
Q 2300 3350 2112 3675 
Q 1925 4000 1612 4012 
Q 1300 4025 1062 3700 
Q 825 3375 750 2687 
z
" transform="scale(0.015625)"/>
       </defs>
       <use xlink:href="#SimHei-30"/>
      </g>
     </g>
    </g>
    <g id="xtick_2">
     <g id="line2d_2">
      <g>
       <use xlink:href="#meded516e2f" x="174.24385" y="320.4" style="stroke: #000000; stroke-width: 0.8"/>
      </g>
     </g>
     <g id="text_2">
      <!-- 1 -->
      <g transform="translate(171.74385 334.275) scale(0.1 -0.1)">
       <defs>
        <path id="SimHei-31" d="M 1400 3600 
Q 1075 3275 575 2975 
L 575 3450 
Q 1200 3875 1600 4450 
L 1900 4450 
L 1900 150 
L 1400 150 
L 1400 3600 
z
" transform="scale(0.015625)"/>
       </defs>
       <use xlink:href="#SimHei-31"/>
      </g>
     </g>
    </g>
    <g id="xtick_3">
     <g id="line2d_3">
      <g>
       <use xlink:href="#meded516e2f" x="199.820626" y="320.4" style="stroke: #000000; stroke-width: 0.8"/>
      </g>
     </g>
     <g id="text_3">
      <!-- 2 -->
      <g transform="translate(197.320626 334.275) scale(0.1 -0.1)">
       <defs>
        <path id="SimHei-32" d="M 300 250 
Q 325 625 650 925 
Q 975 1225 1475 1862 
Q 1975 2500 2125 2850 
Q 2275 3200 2237 3450 
Q 2200 3700 2000 3862 
Q 1800 4025 1537 4000 
Q 1275 3975 1037 3800 
Q 800 3625 675 3275 
L 200 3350 
Q 400 3925 712 4187 
Q 1025 4450 1450 4475 
Q 1700 4500 1900 4462 
Q 2100 4425 2312 4287 
Q 2525 4150 2662 3875 
Q 2800 3600 2762 3212 
Q 2725 2825 2375 2287 
Q 2025 1750 1025 600 
L 2825 600 
L 2825 150 
L 300 150 
L 300 250 
z
" transform="scale(0.015625)"/>
       </defs>
       <use xlink:href="#SimHei-32"/>
      </g>
     </g>
    </g>
    <g id="xtick_4">
     <g id="line2d_4">
      <g>
       <use xlink:href="#meded516e2f" x="225.397403" y="320.4" style="stroke: #000000; stroke-width: 0.8"/>
      </g>
     </g>
     <g id="text_4">
      <!-- 3 -->
      <g transform="translate(222.897403 334.275) scale(0.1 -0.1)">
       <defs>
        <path id="SimHei-33" d="M 250 1225 
L 700 1300 
Q 800 975 1025 762 
Q 1250 550 1587 562 
Q 1925 575 2125 837 
Q 2325 1100 2300 1437 
Q 2275 1775 2037 1962 
Q 1800 2150 1275 2225 
L 1275 2550 
Q 1800 2600 2037 2825 
Q 2275 3050 2250 3412 
Q 2225 3775 1925 3937 
Q 1625 4100 1287 3975 
Q 950 3850 750 3275 
L 300 3350 
Q 450 3800 712 4100 
Q 975 4400 1425 4450 
Q 1875 4500 2212 4337 
Q 2550 4175 2687 3837 
Q 2825 3500 2725 3100 
Q 2625 2700 2150 2400 
Q 2500 2250 2687 1950 
Q 2875 1650 2812 1162 
Q 2750 675 2375 375 
Q 2000 75 1525 87 
Q 1050 100 700 387 
Q 350 675 250 1225 
z
" transform="scale(0.015625)"/>
       </defs>
       <use xlink:href="#SimHei-33"/>
      </g>
     </g>
    </g>
    <g id="xtick_5">
     <g id="line2d_5">
      <g>
       <use xlink:href="#meded516e2f" x="250.974179" y="320.4" style="stroke: #000000; stroke-width: 0.8"/>
      </g>
     </g>
     <g id="text_5">
      <!-- 4 -->
      <g transform="translate(248.474179 334.275) scale(0.1 -0.1)">
       <defs>
        <path id="SimHei-34" d="M 2000 1100 
L 75 1100 
L 75 1525 
L 2100 4450 
L 2475 4450 
L 2475 1525 
L 3075 1525 
L 3075 1100 
L 2475 1100 
L 2475 150 
L 2000 150 
L 2000 1100 
z
M 2000 1525 
L 2000 3500 
L 600 1525 
L 2000 1525 
z
" transform="scale(0.015625)"/>
       </defs>
       <use xlink:href="#SimHei-34"/>
      </g>
     </g>
    </g>
    <g id="xtick_6">
     <g id="line2d_6">
      <g>
       <use xlink:href="#meded516e2f" x="276.550955" y="320.4" style="stroke: #000000; stroke-width: 0.8"/>
      </g>
     </g>
     <g id="text_6">
      <!-- 5 -->
      <g transform="translate(274.050955 334.275) scale(0.1 -0.1)">
       <defs>
        <path id="SimHei-35" d="M 550 1325 
Q 725 650 1150 575 
Q 1575 500 1837 662 
Q 2100 825 2212 1087 
Q 2325 1350 2312 1675 
Q 2300 2000 2137 2225 
Q 1975 2450 1725 2525 
Q 1475 2600 1162 2525 
Q 850 2450 650 2175 
L 225 2225 
Q 275 2375 700 4375 
L 2675 4375 
L 2675 3925 
L 1075 3925 
Q 950 3250 825 2850 
Q 1200 3025 1525 3012 
Q 1850 3000 2150 2862 
Q 2450 2725 2587 2487 
Q 2725 2250 2787 2012 
Q 2850 1775 2837 1500 
Q 2825 1225 2725 937 
Q 2625 650 2425 462 
Q 2225 275 1937 162 
Q 1650 50 1275 75 
Q 900 100 562 350 
Q 225 600 100 1200 
L 550 1325 
z
" transform="scale(0.015625)"/>
       </defs>
       <use xlink:href="#SimHei-35"/>
      </g>
     </g>
    </g>
    <g id="xtick_7">
     <g id="line2d_7">
      <g>
       <use xlink:href="#meded516e2f" x="302.127731" y="320.4" style="stroke: #000000; stroke-width: 0.8"/>
      </g>
     </g>
     <g id="text_7">
      <!-- 6 -->
      <g transform="translate(299.627731 334.275) scale(0.1 -0.1)">
       <defs>
        <path id="SimHei-36" d="M 250 1612 
Q 275 1975 387 2225 
Q 500 2475 725 2850 
L 1750 4450 
L 2325 4450 
L 1275 2800 
Q 1950 2975 2350 2750 
Q 2750 2525 2887 2237 
Q 3025 1950 3037 1612 
Q 3050 1275 2937 950 
Q 2825 625 2537 362 
Q 2250 100 1737 75 
Q 1225 50 862 262 
Q 500 475 362 862 
Q 225 1250 250 1612 
z
M 1025 787 
Q 1250 550 1625 525 
Q 2000 500 2250 775 
Q 2500 1050 2500 1575 
Q 2500 2100 2187 2300 
Q 1875 2500 1487 2450 
Q 1100 2400 925 2075 
Q 750 1750 775 1387 
Q 800 1025 1025 787 
z
" transform="scale(0.015625)"/>
       </defs>
       <use xlink:href="#SimHei-36"/>
      </g>
     </g>
    </g>
    <g id="xtick_8">
     <g id="line2d_8">
      <g>
       <use xlink:href="#meded516e2f" x="327.704507" y="320.4" style="stroke: #000000; stroke-width: 0.8"/>
      </g>
     </g>
     <g id="text_8">
      <!-- 7 -->
      <g transform="translate(325.204507 334.275) scale(0.1 -0.1)">
       <defs>
        <path id="SimHei-37" d="M 850 150 
Q 1300 2050 2425 3925 
L 275 3925 
L 275 4375 
L 2950 4375 
L 2950 3950 
Q 1775 2050 1400 150 
L 850 150 
z
" transform="scale(0.015625)"/>
       </defs>
       <use xlink:href="#SimHei-37"/>
      </g>
     </g>
    </g>
    <g id="xtick_9">
     <g id="line2d_9">
      <g>
       <use xlink:href="#meded516e2f" x="353.281283" y="320.4" style="stroke: #000000; stroke-width: 0.8"/>
      </g>
     </g>
     <g id="text_9">
      <!-- 8 -->
      <g transform="translate(350.781283 334.275) scale(0.1 -0.1)">
       <defs>
        <path id="SimHei-38" d="M 175 1375 
Q 175 1675 325 1962 
Q 475 2250 825 2425 
Q 525 2600 425 2812 
Q 325 3025 312 3300 
Q 300 3575 387 3775 
Q 475 3975 650 4150 
Q 825 4325 1037 4387 
Q 1250 4450 1500 4450 
Q 1750 4450 1950 4400 
Q 2150 4350 2375 4187 
Q 2600 4025 2700 3725 
Q 2800 3425 2687 3025 
Q 2575 2625 2100 2400 
Q 2525 2275 2700 2012 
Q 2875 1750 2875 1375 
Q 2875 1000 2762 775 
Q 2650 550 2512 400 
Q 2375 250 2137 162 
Q 1900 75 1537 75 
Q 1175 75 912 162 
Q 650 250 475 425 
Q 300 600 237 837 
Q 175 1075 175 1375 
z
M 687 1400 
Q 675 1100 787 875 
Q 900 650 1200 587 
Q 1500 525 1825 600 
Q 2150 675 2275 950 
Q 2400 1225 2362 1500 
Q 2325 1775 2050 1962 
Q 1775 2150 1450 2125 
Q 1125 2100 912 1900 
Q 700 1700 687 1400 
z
M 775 3350 
Q 775 3100 950 2875 
Q 1125 2650 1500 2650 
Q 1875 2650 2062 2875 
Q 2250 3100 2237 3412 
Q 2225 3725 2012 3875 
Q 1800 4025 1437 4000 
Q 1075 3975 925 3787 
Q 775 3600 775 3350 
z
" transform="scale(0.015625)"/>
       </defs>
       <use xlink:href="#SimHei-38"/>
      </g>
     </g>
    </g>
    <g id="xtick_10">
     <g id="line2d_10">
      <g>
       <use xlink:href="#meded516e2f" x="378.85806" y="320.4" style="stroke: #000000; stroke-width: 0.8"/>
      </g>
     </g>
     <g id="text_10">
      <!-- 9 -->
      <g transform="translate(376.35806 334.275) scale(0.1 -0.1)">
       <defs>
        <path id="SimHei-39" d="M 800 75 
Q 1350 1000 1700 1750 
Q 1075 1650 662 1912 
Q 250 2175 162 2625 
Q 75 3075 175 3437 
Q 275 3800 487 4037 
Q 700 4275 1000 4375 
Q 1300 4475 1537 4475 
Q 1775 4475 2025 4375 
Q 2275 4275 2475 4075 
Q 2675 3875 2750 3662 
Q 2825 3450 2825 3112 
Q 2825 2775 2575 2250 
Q 2325 1725 1350 75 
L 800 75 
z
M 662 2875 
Q 700 2550 937 2337 
Q 1175 2125 1450 2150 
Q 1725 2175 1887 2300 
Q 2050 2425 2200 2725 
Q 2300 3100 2250 3362 
Q 2200 3625 1987 3800 
Q 1775 3975 1525 3975 
Q 1375 4000 1137 3900 
Q 900 3800 762 3500 
Q 625 3200 662 2875 
z
" transform="scale(0.015625)"/>
       </defs>
       <use xlink:href="#SimHei-39"/>
      </g>
     </g>
    </g>
    <g id="xtick_11">
     <g id="line2d_11">
      <g>
       <use xlink:href="#meded516e2f" x="404.434836" y="320.4" style="stroke: #000000; stroke-width: 0.8"/>
      </g>
     </g>
     <g id="text_11">
      <!-- 10 -->
      <g transform="translate(399.434836 334.275) scale(0.1 -0.1)">
       <use xlink:href="#SimHei-31"/>
       <use xlink:href="#SimHei-30" x="50"/>
      </g>
     </g>
    </g>
    <g id="xtick_12">
     <g id="line2d_12">
      <g>
       <use xlink:href="#meded516e2f" x="430.011612" y="320.4" style="stroke: #000000; stroke-width: 0.8"/>
      </g>
     </g>
     <g id="text_12">
      <!-- 11 -->
      <g transform="translate(425.011612 334.275) scale(0.1 -0.1)">
       <use xlink:href="#SimHei-31"/>
       <use xlink:href="#SimHei-31" x="50"/>
      </g>
     </g>
    </g>
    <g id="xtick_13">
     <g id="line2d_13">
      <g>
       <use xlink:href="#meded516e2f" x="455.588388" y="320.4" style="stroke: #000000; stroke-width: 0.8"/>
      </g>
     </g>
     <g id="text_13">
      <!-- 12 -->
      <g transform="translate(450.588388 334.275) scale(0.1 -0.1)">
       <use xlink:href="#SimHei-31"/>
       <use xlink:href="#SimHei-32" x="50"/>
      </g>
     </g>
    </g>
    <g id="xtick_14">
     <g id="line2d_14">
      <g>
       <use xlink:href="#meded516e2f" x="481.165164" y="320.4" style="stroke: #000000; stroke-width: 0.8"/>
      </g>
     </g>
     <g id="text_14">
      <!-- 13 -->
      <g transform="translate(476.165164 334.275) scale(0.1 -0.1)">
       <use xlink:href="#SimHei-31"/>
       <use xlink:href="#SimHei-33" x="50"/>
      </g>
     </g>
    </g>
    <g id="xtick_15">
     <g id="line2d_15">
      <g>
       <use xlink:href="#meded516e2f" x="506.74194" y="320.4" style="stroke: #000000; stroke-width: 0.8"/>
      </g>
     </g>
     <g id="text_15">
      <!-- 14 -->
      <g transform="translate(501.74194 334.275) scale(0.1 -0.1)">
       <use xlink:href="#SimHei-31"/>
       <use xlink:href="#SimHei-34" x="50"/>
      </g>
     </g>
    </g>
    <g id="xtick_16">
     <g id="line2d_16">
      <g>
       <use xlink:href="#meded516e2f" x="532.318717" y="320.4" style="stroke: #000000; stroke-width: 0.8"/>
      </g>
     </g>
     <g id="text_16">
      <!-- 15 -->
      <g transform="translate(527.318717 334.275) scale(0.1 -0.1)">
       <use xlink:href="#SimHei-31"/>
       <use xlink:href="#SimHei-35" x="50"/>
      </g>
     </g>
    </g>
    <g id="xtick_17">
     <g id="line2d_17">
      <g>
       <use xlink:href="#meded516e2f" x="557.895493" y="320.4" style="stroke: #000000; stroke-width: 0.8"/>
      </g>
     </g>
     <g id="text_17">
      <!-- 16 -->
      <g transform="translate(552.895493 334.275) scale(0.1 -0.1)">
       <use xlink:href="#SimHei-31"/>
       <use xlink:href="#SimHei-36" x="50"/>
      </g>
     </g>
    </g>
    <g id="xtick_18">
     <g id="line2d_18">
      <g>
       <use xlink:href="#meded516e2f" x="583.472269" y="320.4" style="stroke: #000000; stroke-width: 0.8"/>
      </g>
     </g>
     <g id="text_18">
      <!-- 17 -->
      <g transform="translate(578.472269 334.275) scale(0.1 -0.1)">
       <use xlink:href="#SimHei-31"/>
       <use xlink:href="#SimHei-37" x="50"/>
      </g>
     </g>
    </g>
    <g id="xtick_19">
     <g id="line2d_19">
      <g>
       <use xlink:href="#meded516e2f" x="609.049045" y="320.4" style="stroke: #000000; stroke-width: 0.8"/>
      </g>
     </g>
     <g id="text_19">
      <!-- 18 -->
      <g transform="translate(604.049045 334.275) scale(0.1 -0.1)">
       <use xlink:href="#SimHei-31"/>
       <use xlink:href="#SimHei-38" x="50"/>
      </g>
     </g>
    </g>
    <g id="xtick_20">
     <g id="line2d_20">
      <g>
       <use xlink:href="#meded516e2f" x="634.625821" y="320.4" style="stroke: #000000; stroke-width: 0.8"/>
      </g>
     </g>
     <g id="text_20">
      <!-- 19 -->
      <g transform="translate(629.625821 334.275) scale(0.1 -0.1)">
       <use xlink:href="#SimHei-31"/>
       <use xlink:href="#SimHei-39" x="50"/>
      </g>
     </g>
    </g>
    <g id="xtick_21">
     <g id="line2d_21">
      <g>
       <use xlink:href="#meded516e2f" x="660.202597" y="320.4" style="stroke: #000000; stroke-width: 0.8"/>
      </g>
     </g>
     <g id="text_21">
      <!-- 20 -->
      <g transform="translate(655.202597 334.275) scale(0.1 -0.1)">
       <use xlink:href="#SimHei-32"/>
       <use xlink:href="#SimHei-30" x="50"/>
      </g>
     </g>
    </g>
    <g id="xtick_22">
     <g id="line2d_22">
      <g>
       <use xlink:href="#meded516e2f" x="685.779374" y="320.4" style="stroke: #000000; stroke-width: 0.8"/>
      </g>
     </g>
     <g id="text_22">
      <!-- 21 -->
      <g transform="translate(680.779374 334.275) scale(0.1 -0.1)">
       <use xlink:href="#SimHei-32"/>
       <use xlink:href="#SimHei-31" x="50"/>
      </g>
     </g>
    </g>
    <g id="xtick_23">
     <g id="line2d_23">
      <g>
       <use xlink:href="#meded516e2f" x="711.35615" y="320.4" style="stroke: #000000; stroke-width: 0.8"/>
      </g>
     </g>
     <g id="text_23">
      <!-- 22 -->
      <g transform="translate(706.35615 334.275) scale(0.1 -0.1)">
       <use xlink:href="#SimHei-32"/>
       <use xlink:href="#SimHei-32" x="50"/>
      </g>
     </g>
    </g>
    <g id="xtick_24">
     <g id="line2d_24">
      <g>
       <use xlink:href="#meded516e2f" x="736.932926" y="320.4" style="stroke: #000000; stroke-width: 0.8"/>
      </g>
     </g>
     <g id="text_24">
      <!-- 23 -->
      <g transform="translate(731.932926 334.275) scale(0.1 -0.1)">
       <use xlink:href="#SimHei-32"/>
       <use xlink:href="#SimHei-33" x="50"/>
      </g>
     </g>
    </g>
    <g id="text_25">
     <!-- 时刻 -->
     <g transform="translate(432.8 347.571875) scale(0.1 -0.1)">
      <defs>
       <path id="SimHei-65f6" d="M 2525 4575 
Q 2500 3675 2500 2400 
Q 2500 1125 2525 400 
L 2000 400 
L 2000 875 
L 1000 875 
L 1000 50 
L 475 50 
Q 500 1200 500 2350 
Q 500 3525 475 4575 
L 2525 4575 
z
M 4875 3825 
Q 4875 4575 4850 5225 
L 5400 5225 
Q 5375 4575 5375 3825 
Q 5750 3825 6175 3850 
L 6175 3375 
Q 5750 3400 5375 3400 
L 5375 50 
Q 5375 -325 5075 -425 
Q 4775 -525 4300 -575 
Q 4300 -275 4025 0 
Q 4500 -50 4687 -25 
Q 4875 0 4875 300 
L 4875 3400 
Q 3625 3400 2775 3375 
L 2775 3850 
Q 3575 3825 4875 3825 
z
M 2000 1300 
L 2000 2550 
L 1000 2550 
L 1000 1300 
L 2000 1300 
z
M 2000 2975 
L 2000 4150 
L 1000 4150 
L 1000 2975 
L 2000 2975 
z
M 3550 2725 
Q 3875 2200 4175 1600 
Q 3925 1525 3650 1375 
Q 3450 1975 3075 2500 
Q 3300 2600 3550 2725 
z
" transform="scale(0.015625)"/>
       <path id="SimHei-523b" d="M 2900 4250 
Q 3350 4250 3775 4300 
L 3775 3800 
Q 3425 3825 2900 3825 
L 1750 3825 
Q 1925 3675 2175 3550 
Q 1925 3450 1687 3162 
Q 1450 2875 1125 2600 
Q 1475 2625 1725 2637 
Q 1975 2650 2300 2675 
Q 2450 2800 2562 2962 
Q 2675 3125 2800 3375 
Q 3025 3200 3325 3025 
Q 3125 2875 2875 2575 
Q 2625 2275 2287 1937 
Q 1950 1600 1562 1262 
Q 1175 925 650 575 
Q 500 850 275 1025 
Q 750 1225 1187 1562 
Q 1625 1900 2050 2300 
Q 1450 2225 1150 2162 
Q 850 2100 700 2025 
Q 575 2325 400 2550 
Q 800 2800 1087 3150 
Q 1375 3500 1525 3825 
L 1100 3825 
Q 650 3825 225 3800 
L 225 4300 
Q 650 4250 1075 4250 
L 2900 4250 
z
M 6075 5100 
Q 6025 4750 6025 4250 
L 6025 100 
Q 6025 -275 5837 -387 
Q 5650 -500 4975 -600 
Q 4900 -200 4750 25 
Q 5250 0 5375 25 
Q 5500 50 5500 300 
L 5500 4250 
Q 5500 4625 5475 5100 
L 6075 5100 
z
M 3775 1950 
Q 3650 1850 3437 1612 
Q 3225 1375 2900 1025 
Q 3175 850 3437 625 
Q 3700 400 4000 150 
Q 3850 0 3525 -250 
Q 3325 0 3112 237 
Q 2900 475 2600 700 
Q 2050 250 1637 -12 
Q 1225 -275 675 -650 
Q 550 -325 325 -175 
Q 975 100 1462 437 
Q 1950 775 2312 1112 
Q 2675 1450 2875 1725 
Q 3075 2000 3225 2300 
L 3775 1950 
z
M 4775 4200 
Q 4750 3850 4750 3450 
L 4750 1600 
Q 4750 1200 4800 775 
L 4175 775 
Q 4225 1125 4225 1600 
L 4225 3525 
Q 4225 3875 4200 4200 
L 4775 4200 
z
M 2125 5300 
Q 2225 5100 2312 4912 
Q 2400 4725 2500 4500 
Q 2250 4425 1950 4300 
Q 1875 4550 1787 4725 
Q 1700 4900 1600 5075 
Q 1900 5175 2125 5300 
z
" transform="scale(0.015625)"/>
      </defs>
      <use xlink:href="#SimHei-65f6"/>
      <use xlink:href="#SimHei-523b" x="100"/>
     </g>
    </g>
   </g>
   <g id="matplotlib.axis_2">
    <g id="ytick_1">
     <g id="line2d_25">
      <defs>
       <path id="mb75970c08c" d="M 0 0 
L -3.5 0 
" style="stroke: #000000; stroke-width: 0.8"/>
      </defs>
      <g>
       <use xlink:href="#mb75970c08c" x="108" y="320.4" style="stroke: #000000; stroke-width: 0.8"/>
      </g>
     </g>
     <g id="text_26">
      <!-- 0 -->
      <g transform="translate(96 323.8375) scale(0.1 -0.1)">
       <use xlink:href="#SimHei-30"/>
      </g>
     </g>
    </g>
    <g id="ytick_2">
     <g id="line2d_26">
      <g>
       <use xlink:href="#mb75970c08c" x="108" y="262.682466" style="stroke: #000000; stroke-width: 0.8"/>
      </g>
     </g>
     <g id="text_27">
      <!-- 500 -->
      <g transform="translate(86 266.119966) scale(0.1 -0.1)">
       <use xlink:href="#SimHei-35"/>
       <use xlink:href="#SimHei-30" x="50"/>
       <use xlink:href="#SimHei-30" x="100"/>
      </g>
     </g>
    </g>
    <g id="ytick_3">
     <g id="line2d_27">
      <g>
       <use xlink:href="#mb75970c08c" x="108" y="204.964932" style="stroke: #000000; stroke-width: 0.8"/>
      </g>
     </g>
     <g id="text_28">
      <!-- 1000 -->
      <g transform="translate(81 208.402432) scale(0.1 -0.1)">
       <use xlink:href="#SimHei-31"/>
       <use xlink:href="#SimHei-30" x="50"/>
       <use xlink:href="#SimHei-30" x="100"/>
       <use xlink:href="#SimHei-30" x="150"/>
      </g>
     </g>
    </g>
    <g id="ytick_4">
     <g id="line2d_28">
      <g>
       <use xlink:href="#mb75970c08c" x="108" y="147.247398" style="stroke: #000000; stroke-width: 0.8"/>
      </g>
     </g>
     <g id="text_29">
      <!-- 1500 -->
      <g transform="translate(81 150.684898) scale(0.1 -0.1)">
       <use xlink:href="#SimHei-31"/>
       <use xlink:href="#SimHei-35" x="50"/>
       <use xlink:href="#SimHei-30" x="100"/>
       <use xlink:href="#SimHei-30" x="150"/>
      </g>
     </g>
    </g>
    <g id="ytick_5">
     <g id="line2d_29">
      <g>
       <use xlink:href="#mb75970c08c" x="108" y="89.529864" style="stroke: #000000; stroke-width: 0.8"/>
      </g>
     </g>
     <g id="text_30">
      <!-- 2000 -->
      <g transform="translate(81 92.967364) scale(0.1 -0.1)">
       <use xlink:href="#SimHei-32"/>
       <use xlink:href="#SimHei-30" x="50"/>
       <use xlink:href="#SimHei-30" x="100"/>
       <use xlink:href="#SimHei-30" x="150"/>
      </g>
     </g>
    </g>
    <g id="text_31">
     <!-- 访问量 -->
     <g transform="translate(75.75 196.8) rotate(-90) scale(0.1 -0.1)">
      <defs>
       <path id="SimHei-8bbf" d="M 2050 -300 
Q 2550 175 2825 675 
Q 3100 1175 3150 1675 
Q 3200 2175 3200 2650 
L 3200 3600 
Q 2650 3600 2125 3575 
L 2125 4050 
Q 2575 4025 2875 4025 
L 5375 4025 
Q 5650 4025 6075 4050 
L 6075 3575 
Q 5700 3600 5275 3600 
L 3675 3600 
L 3675 2750 
L 5600 2750 
Q 5550 2475 5525 1975 
L 5400 175 
Q 5350 -275 5062 -412 
Q 4775 -550 4200 -575 
Q 4175 -325 4000 -25 
Q 4475 -50 4675 -12 
Q 4875 25 4950 375 
L 5075 2325 
L 3675 2325 
Q 3625 1725 3550 1312 
Q 3475 900 3225 412 
Q 2975 -75 2475 -600 
Q 2225 -375 2050 -300 
z
M 2550 925 
Q 2050 475 1750 200 
Q 1450 -75 1200 -325 
Q 1000 -100 850 50 
Q 1125 275 1100 525 
L 1100 2775 
L 325 2775 
L 325 3250 
Q 625 3225 900 3225 
L 1625 3225 
Q 1600 2750 1600 2250 
L 1600 650 
Q 1825 825 2375 1350 
Q 2400 1125 2550 925 
z
M 1050 5125 
Q 1275 4875 1850 4050 
Q 1675 3925 1425 3750 
Q 1050 4375 650 4850 
Q 900 5000 1050 5125 
z
M 3425 5025 
Q 3675 5125 3850 5275 
Q 4100 4950 4425 4300 
Q 4175 4225 3950 4075 
Q 3800 4475 3425 5025 
z
" transform="scale(0.015625)"/>
       <path id="SimHei-95ee" d="M 4375 3225 
Q 4350 2675 4350 2100 
Q 4350 1525 4375 1050 
L 1900 1050 
Q 1925 1575 1925 2075 
Q 1925 2575 1900 3225 
L 4375 3225 
z
M 5800 4825 
Q 5775 4350 5775 3850 
L 5775 100 
Q 5775 -375 5500 -462 
Q 5225 -550 4725 -625 
Q 4700 -275 4500 -25 
Q 5025 -25 5125 0 
Q 5225 25 5250 225 
L 5250 4400 
L 3800 4400 
Q 3175 4400 2675 4375 
L 2675 4850 
Q 3175 4825 3775 4825 
L 5800 4825 
z
M 1175 3875 
Q 1150 3450 1150 3175 
L 1150 -600 
L 600 -600 
Q 625 -100 625 325 
L 625 3050 
Q 625 3500 600 3875 
L 1175 3875 
z
M 3850 1475 
L 3850 2800 
L 2400 2800 
L 2400 1475 
L 3850 1475 
z
M 1400 5200 
Q 1700 4800 2125 4325 
Q 1950 4200 1675 4000 
Q 1325 4550 975 4875 
Q 1225 5075 1400 5200 
z
" transform="scale(0.015625)"/>
       <path id="SimHei-91cf" d="M 5250 2500 
Q 5225 2200 5225 1700 
Q 5225 1225 5250 950 
L 3425 950 
L 3425 625 
L 4575 625 
Q 5000 625 5375 650 
L 5375 275 
Q 5025 300 4575 300 
L 3425 300 
L 3425 -75 
L 5125 -75 
Q 5525 -75 5925 -50 
L 5925 -425 
Q 5525 -400 5125 -400 
L 1275 -400 
Q 900 -400 475 -425 
L 475 -50 
Q 925 -50 1275 -75 
L 2975 -75 
L 2975 300 
L 1725 300 
Q 1350 300 975 250 
L 975 650 
Q 1375 625 1725 625 
L 2975 625 
L 2975 950 
L 1150 950 
Q 1175 1375 1175 1775 
Q 1175 2175 1150 2500 
L 5250 2500 
z
M 5200 4950 
Q 5175 4575 5175 4250 
Q 5175 3925 5200 3400 
L 1200 3400 
Q 1225 3925 1225 4250 
Q 1225 4575 1200 4950 
L 5200 4950 
z
M 4900 3100 
Q 5500 3125 6000 3150 
L 6000 2750 
Q 5500 2775 4925 2775 
L 1650 2775 
Q 975 2775 325 2750 
L 325 3150 
Q 975 3125 1650 3100 
L 4900 3100 
z
M 4725 3700 
L 4725 4025 
L 1675 4025 
L 1675 3700 
L 4725 3700 
z
M 4725 4350 
L 4725 4650 
L 1675 4650 
L 1675 4350 
L 4725 4350 
z
M 4750 1875 
L 4750 2175 
L 3425 2175 
L 3425 1875 
L 4750 1875 
z
M 2975 1875 
L 2975 2175 
L 1650 2175 
L 1650 1875 
L 2975 1875 
z
M 2975 1275 
L 2975 1550 
L 1650 1550 
L 1650 1275 
L 2975 1275 
z
M 4750 1275 
L 4750 1550 
L 3425 1550 
L 3425 1275 
L 4750 1275 
z
" transform="scale(0.015625)"/>
      </defs>
      <use xlink:href="#SimHei-8bbf"/>
      <use xlink:href="#SimHei-95ee" x="100"/>
      <use xlink:href="#SimHei-91cf" x="200"/>
     </g>
    </g>
   </g>
   <g id="line2d_30">
    <path d="M 148.667074 246.983297 
L 174.24385 293.157324 
L 199.820626 310.010844 
L 225.397403 315.089987 
L 250.974179 315.898032 
L 276.550955 314.281941 
L 302.127731 306.201487 
L 327.704507 289.694272 
L 353.281283 278.03533 
L 378.85806 273.187057 
L 404.434836 274.456843 
L 430.011612 275.611194 
L 455.588388 278.49707 
L 481.165164 275.034018 
L 506.74194 286.577525 
L 532.318717 285.192304 
L 557.895493 288.770791 
L 583.472269 292.580149 
L 609.049045 292.349279 
L 634.625821 285.423174 
L 660.202597 280.690337 
L 685.779374 272.609882 
L 711.35615 266.953564 
L 736.932926 269.3777 
" clip-path="url(#pf4ebdfcb9a)" style="fill: none; stroke: #ff0000; stroke-width: 1.5; stroke-linecap: square"/>
   </g>
   <g id="line2d_31">
    <path d="M 148.667074 245.251771 
L 174.24385 289.001662 
L 199.820626 304.239091 
L 225.397403 313.012156 
L 250.974179 315.089987 
L 276.550955 311.74237 
L 302.127731 302.276694 
L 327.704507 284.153389 
L 353.281283 270.762921 
L 378.85806 263.605947 
L 404.434836 263.028771 
L 430.011612 270.07031 
L 455.588388 271.686401 
L 481.165164 267.992479 
L 506.74194 274.803148 
L 532.318717 275.380324 
L 557.895493 274.687713 
L 583.472269 281.960122 
L 609.049045 280.113161 
L 634.625821 272.148142 
L 660.202597 263.836817 
L 685.779374 250.215479 
L 711.35615 247.906777 
L 736.932926 255.756362 
" clip-path="url(#pf4ebdfcb9a)" style="fill: none; stroke: #0000ff; stroke-width: 1.5; stroke-linecap: square"/>
   </g>
   <g id="line2d_32">
    <path d="M 148.667074 292.926454 
L 174.24385 308.625623 
L 199.820626 313.358461 
L 225.397403 316.244338 
L 250.974179 316.821513 
L 276.550955 316.936948 
L 302.127731 312.20411 
L 327.704507 303.31561 
L 353.281283 301.122344 
L 378.85806 295.235155 
L 404.434836 294.773415 
L 430.011612 297.774727 
L 455.588388 296.966681 
L 481.165164 297.543857 
L 506.74194 294.773415 
L 532.318717 297.312986 
L 557.895493 295.696895 
L 583.472269 298.813642 
L 609.049045 298.698207 
L 634.625821 293.388194 
L 660.202597 291.310363 
L 685.779374 287.501006 
L 711.35615 287.1547 
L 736.932926 289.809707 
" clip-path="url(#pf4ebdfcb9a)" style="fill: none; stroke: #008000; stroke-width: 1.5; stroke-linecap: square"/>
   </g>
   <g id="patch_27">
    <path d="M 108 320.4 
L 108 43.2 
" style="fill: none; stroke: #000000; stroke-width: 0.8; stroke-linejoin: miter; stroke-linecap: square"/>
   </g>
   <g id="patch_28">
    <path d="M 777.6 320.4 
L 777.6 43.2 
" style="fill: none; stroke: #000000; stroke-width: 0.8; stroke-linejoin: miter; stroke-linecap: square"/>
   </g>
   <g id="patch_29">
    <path d="M 108 320.4 
L 777.6 320.4 
" style="fill: none; stroke: #000000; stroke-width: 0.8; stroke-linejoin: miter; stroke-linecap: square"/>
   </g>
   <g id="patch_30">
    <path d="M 108 43.2 
L 777.6 43.2 
" style="fill: none; stroke: #000000; stroke-width: 0.8; stroke-linejoin: miter; stroke-linecap: square"/>
   </g>
   <g id="text_32">
    <!-- 双12当天用户行为 -->
    <g transform="translate(362.8 37.2) scale(0.2 -0.2)">
     <defs>
      <path id="SimHei-53cc" d="M 5675 4775 
Q 5500 3400 5250 2525 
Q 5000 1650 4625 1075 
Q 4925 675 5337 362 
Q 5750 50 6200 -125 
Q 5900 -250 5700 -550 
Q 5425 -375 5037 -62 
Q 4650 250 4300 700 
Q 4050 375 3637 25 
Q 3225 -325 2650 -675 
Q 2475 -425 2225 -325 
Q 2875 0 3337 412 
Q 3800 825 4000 1125 
Q 3650 2000 3525 2587 
Q 3400 3175 3300 4325 
L 3050 4325 
L 3050 4800 
Q 3525 4775 4025 4775 
L 5675 4775 
z
M 2875 4725 
Q 2800 4000 2700 3412 
Q 2600 2825 2350 2100 
Q 3075 1225 3300 850 
Q 3100 725 2875 525 
Q 2525 1075 2125 1575 
Q 1875 1050 1587 612 
Q 1300 175 800 -325 
Q 650 -125 350 -25 
Q 850 400 1187 862 
Q 1525 1325 1750 1925 
Q 1400 2400 550 3275 
Q 750 3450 900 3625 
Q 1575 2925 1950 2450 
Q 2075 2750 2175 3225 
Q 2275 3700 2300 4275 
L 1400 4275 
Q 850 4275 475 4250 
L 475 4750 
Q 875 4725 1375 4725 
L 2875 4725 
z
M 3775 4325 
Q 3850 3325 3950 2825 
Q 4050 2325 4350 1600 
Q 4625 2125 4825 2825 
Q 5025 3525 5100 4325 
L 3775 4325 
z
" transform="scale(0.015625)"/>
      <path id="SimHei-5f53" d="M 3550 5125 
Q 3525 4825 3525 4275 
L 3525 2925 
L 5625 2925 
Q 5600 2425 5600 2100 
L 5600 175 
Q 5600 -150 5625 -650 
L 5075 -650 
L 5075 -125 
L 1675 -125 
Q 1150 -125 675 -150 
L 675 325 
Q 1150 300 1675 300 
L 5075 300 
L 5075 1200 
L 2000 1200 
Q 1425 1200 900 1175 
L 900 1675 
Q 1425 1650 2000 1650 
L 5075 1650 
L 5075 2500 
L 1700 2500 
Q 1250 2500 750 2475 
L 750 2950 
Q 1250 2925 1700 2925 
L 3000 2925 
L 3000 4275 
Q 3000 4725 2975 5125 
L 3550 5125 
z
M 5700 4500 
Q 5525 4300 5287 4000 
Q 5050 3700 4650 3225 
Q 4450 3400 4225 3575 
Q 4725 4050 5175 4850 
Q 5425 4650 5700 4500 
z
M 1325 4800 
Q 1875 4175 2275 3600 
Q 2025 3450 1775 3250 
Q 1375 3925 875 4450 
Q 1150 4625 1325 4800 
z
" transform="scale(0.015625)"/>
      <path id="SimHei-5929" d="M 4475 4900 
Q 4925 4900 5375 4925 
L 5375 4400 
Q 4925 4425 4475 4425 
L 3450 4425 
L 3450 3075 
L 5050 3075 
Q 5525 3075 5900 3100 
L 5900 2575 
Q 5550 2600 5075 2600 
L 3525 2600 
Q 3875 1650 4525 975 
Q 5175 300 6200 50 
Q 5850 -225 5775 -450 
Q 5000 -175 4350 412 
Q 3700 1000 3225 2100 
Q 2925 1075 2275 462 
Q 1625 -150 650 -575 
Q 550 -325 225 -100 
Q 950 100 1750 737 
Q 2550 1375 2875 2600 
L 1500 2600 
Q 950 2600 575 2575 
L 575 3100 
Q 975 3075 1500 3075 
L 2950 3075 
L 2950 4425 
L 1900 4425 
Q 1375 4425 1000 4400 
L 1000 4925 
Q 1400 4900 1900 4900 
L 4475 4900 
z
" transform="scale(0.015625)"/>
      <path id="SimHei-7528" d="M 350 -300 
Q 650 125 812 600 
Q 975 1075 1012 1550 
Q 1050 2025 1050 3150 
Q 1050 4275 1025 4950 
L 5500 4950 
Q 5475 4225 5475 3650 
L 5475 375 
Q 5475 -150 5175 -275 
Q 4875 -400 4475 -450 
Q 4425 -75 4300 125 
Q 4800 100 4887 162 
Q 4975 225 4975 400 
L 4975 1650 
L 3450 1650 
L 3450 675 
Q 3450 125 3475 -325 
L 2925 -325 
Q 2950 100 2950 650 
L 2950 1650 
L 1525 1650 
Q 1425 575 850 -525 
Q 575 -350 350 -300 
z
M 4975 3475 
L 4975 4550 
L 3450 4550 
L 3450 3475 
L 4975 3475 
z
M 4975 2050 
L 4975 3100 
L 3450 3100 
L 3450 2050 
L 4975 2050 
z
M 2950 3475 
L 2950 4550 
L 1525 4550 
L 1525 3475 
L 2950 3475 
z
M 2950 2050 
L 2950 3100 
L 1525 3100 
L 1525 2050 
L 2950 2050 
z
" transform="scale(0.015625)"/>
      <path id="SimHei-6237" d="M 5775 4050 
Q 5750 3450 5750 2675 
Q 5750 1925 5775 1500 
L 5225 1500 
L 5225 1875 
L 1750 1875 
Q 1650 1075 1500 675 
Q 1350 275 1175 -37 
Q 1000 -350 800 -625 
Q 550 -425 250 -325 
Q 750 200 937 662 
Q 1125 1125 1187 1537 
Q 1250 1950 1250 2425 
Q 1250 2900 1225 4050 
L 5775 4050 
z
M 5200 2325 
L 5200 3600 
L 1725 3600 
L 1725 2325 
L 5200 2325 
z
M 3400 5275 
Q 3700 4675 3825 4325 
Q 3500 4250 3325 4150 
Q 3150 4675 2925 5075 
Q 3175 5150 3400 5275 
z
" transform="scale(0.015625)"/>
      <path id="SimHei-884c" d="M 5300 3100 
Q 5775 3100 6175 3125 
L 6175 2625 
Q 5775 2650 5325 2650 
L 4975 2650 
L 4975 -75 
Q 5000 -375 4787 -487 
Q 4575 -600 3950 -675 
Q 3900 -375 3675 -75 
Q 4100 -125 4275 -112 
Q 4450 -100 4475 150 
L 4475 2650 
L 3475 2650 
Q 3000 2650 2575 2625 
L 2575 3125 
Q 3025 3100 3475 3100 
L 5300 3100 
z
M 2300 3400 
Q 2075 3275 1962 3075 
Q 1850 2875 1650 2575 
L 1650 325 
Q 1650 0 1675 -675 
L 1150 -675 
Q 1175 75 1175 450 
L 1175 2050 
Q 950 1675 575 1300 
Q 400 1550 250 1725 
Q 825 2275 1150 2775 
Q 1475 3275 1725 3725 
Q 1975 3575 2300 3400 
z
M 4875 4800 
Q 5300 4800 5750 4825 
L 5750 4350 
Q 5300 4375 4825 4375 
L 3900 4375 
Q 3350 4375 2950 4350 
L 2950 4825 
Q 3350 4800 3900 4800 
L 4875 4800 
z
M 2075 4925 
Q 1875 4900 1550 4387 
Q 1225 3875 650 3250 
Q 500 3450 325 3625 
Q 725 4025 1050 4487 
Q 1375 4950 1525 5300 
Q 1775 5150 2075 4925 
z
" transform="scale(0.015625)"/>
      <path id="SimHei-4e3a" d="M 3525 5125 
Q 3425 4900 3387 4475 
Q 3350 4050 3275 3350 
L 5850 3350 
Q 5800 2925 5775 2625 
L 5500 125 
Q 5425 -325 5025 -450 
Q 4625 -575 4025 -600 
Q 3950 -250 3775 0 
Q 4525 -50 4750 25 
Q 4975 100 5025 475 
L 5275 2925 
L 3225 2925 
Q 3000 1775 2387 925 
Q 1775 75 850 -600 
Q 600 -275 400 -150 
Q 1200 250 1837 1037 
Q 2475 1825 2700 2925 
L 1875 2925 
Q 1450 2925 775 2900 
L 775 3375 
Q 1450 3350 1700 3350 
L 2775 3350 
Q 2875 4200 2875 5225 
Q 3275 5150 3525 5125 
z
M 3500 2175 
Q 4125 1775 4750 1350 
Q 4600 1200 4400 850 
Q 3850 1350 3250 1725 
Q 3425 2000 3500 2175 
z
M 1125 4550 
Q 1350 4725 1500 4900 
Q 2200 4225 2450 3925 
Q 2250 3750 2025 3550 
Q 1750 3950 1125 4550 
z
" transform="scale(0.015625)"/>
     </defs>
     <use xlink:href="#SimHei-53cc"/>
     <use xlink:href="#SimHei-31" x="100"/>
     <use xlink:href="#SimHei-32" x="150"/>
     <use xlink:href="#SimHei-5f53" x="200"/>
     <use xlink:href="#SimHei-5929" x="300"/>
     <use xlink:href="#SimHei-7528" x="400"/>
     <use xlink:href="#SimHei-6237" x="500"/>
     <use xlink:href="#SimHei-884c" x="600"/>
     <use xlink:href="#SimHei-4e3a" x="700"/>
    </g>
   </g>
   <g id="legend_1">
    <g id="patch_31">
     <path d="M 115 107.996875 
L 207 107.996875 
Q 209 107.996875 209 105.996875 
L 209 50.2 
Q 209 48.2 207 48.2 
L 115 48.2 
Q 113 48.2 113 50.2 
L 113 105.996875 
Q 113 107.996875 115 107.996875 
z
" style="fill: #ffffff; opacity: 0.8; stroke: #cccccc; stroke-linejoin: miter"/>
    </g>
    <g id="line2d_33">
     <path d="M 117 56.590625 
L 127 56.590625 
L 137 56.590625 
" style="fill: none; stroke: #ff0000; stroke-width: 1.5; stroke-linecap: square"/>
    </g>
    <g id="text_33">
     <!-- 购买量 -->
     <g transform="translate(145 60.090625) scale(0.1 -0.1)">
      <defs>
       <path id="SimHei-8d2d" d="M 5850 250 
Q 5800 -250 5525 -375 
Q 5250 -500 4675 -575 
Q 4625 -275 4450 -25 
Q 4950 -50 5150 25 
Q 5350 100 5375 325 
L 5425 3750 
L 3675 3750 
Q 3450 3250 3175 2800 
Q 3025 2925 2775 3025 
Q 3100 3475 3350 4137 
Q 3600 4800 3675 5200 
Q 3975 5075 4200 5000 
Q 4075 4800 3825 4175 
L 5925 4175 
Q 5900 3750 5900 3075 
L 5850 250 
z
M 2275 1200 
L 2275 4375 
L 975 4375 
L 975 1050 
L 500 1050 
Q 525 1625 525 2925 
Q 525 4225 500 4775 
L 2725 4775 
Q 2700 4225 2700 3000 
Q 2700 1800 2725 1200 
L 2275 1200 
z
M 200 -225 
Q 650 100 900 525 
Q 1150 950 1262 1450 
Q 1375 1950 1375 2575 
Q 1375 3200 1350 3875 
Q 1625 3825 1900 3825 
Q 1825 3425 1825 2825 
Q 1825 2250 1750 1650 
Q 1675 1050 1412 512 
Q 1150 -25 600 -575 
Q 375 -325 200 -225 
z
M 4725 2325 
Q 5000 1475 5175 900 
Q 4900 800 4700 725 
Q 4650 975 4600 1150 
Q 3600 1075 3200 875 
Q 3125 1125 2975 1400 
Q 3175 1500 3387 1937 
Q 3600 2375 3750 3175 
Q 4050 3025 4275 2975 
Q 4125 2700 3925 2237 
Q 3725 1775 3550 1450 
Q 4075 1500 4500 1525 
Q 4450 1750 4300 2200 
Q 4425 2225 4725 2325 
z
M 2525 -450 
Q 2275 -25 1650 600 
Q 1850 800 1975 950 
Q 2300 700 2925 -100 
Q 2725 -225 2525 -450 
z
" transform="scale(0.015625)"/>
       <path id="SimHei-4e70" d="M 3525 4125 
Q 3600 4100 4150 4025 
Q 4050 3675 4025 3462 
Q 4000 3250 3925 2687 
Q 3850 2125 3775 1750 
L 4925 1750 
Q 5425 1750 6000 1775 
L 6000 1325 
Q 5400 1350 5075 1350 
L 3700 1350 
Q 3175 75 950 -650 
Q 750 -325 550 -225 
Q 2475 175 3125 1350 
L 1275 1350 
Q 850 1350 475 1325 
L 475 1775 
Q 850 1750 1250 1750 
L 3300 1750 
Q 3450 2350 3487 2912 
Q 3525 3475 3525 4125 
z
M 5900 4750 
Q 5800 4475 5675 4125 
Q 5550 3775 5375 3325 
Q 4975 3425 4850 3450 
Q 5075 4050 5200 4375 
L 1775 4375 
Q 1075 4375 800 4350 
L 800 4775 
Q 1075 4750 1675 4750 
L 5900 4750 
z
M 3900 950 
Q 4350 725 4875 437 
Q 5400 150 5875 -175 
Q 5750 -300 5550 -625 
Q 4875 -100 3675 575 
Q 3825 775 3900 950 
z
M 1325 3100 
Q 2175 2575 2550 2300 
Q 2400 2200 2200 1925 
Q 1975 2125 1050 2725 
Q 1300 2950 1325 3100 
z
M 1875 4075 
Q 2700 3550 3025 3300 
Q 2975 3250 2700 2925 
Q 2250 3325 1625 3725 
Q 1825 3950 1875 4075 
z
" transform="scale(0.015625)"/>
      </defs>
      <use xlink:href="#SimHei-8d2d"/>
      <use xlink:href="#SimHei-4e70" x="100"/>
      <use xlink:href="#SimHei-91cf" x="200"/>
     </g>
    </g>
    <g id="line2d_34">
     <path d="M 117 70.770312 
L 127 70.770312 
L 137 70.770312 
" style="fill: none; stroke: #0000ff; stroke-width: 1.5; stroke-linecap: square"/>
    </g>
    <g id="text_34">
     <!-- 加入购物车量 -->
     <g transform="translate(145 74.270312) scale(0.1 -0.1)">
      <defs>
       <path id="SimHei-52a0" d="M 5700 4150 
Q 5675 3625 5675 3100 
L 5675 900 
Q 5675 300 5700 -350 
L 5225 -350 
L 5225 225 
L 4150 225 
L 4150 -475 
L 3675 -475 
Q 3700 25 3700 550 
L 3700 3100 
Q 3700 3600 3675 4150 
L 5700 4150 
z
M 3125 225 
Q 3050 -250 2725 -337 
Q 2400 -425 2025 -450 
Q 2025 -225 1875 125 
Q 2300 100 2475 137 
Q 2650 175 2675 425 
L 2850 3425 
L 1975 3425 
Q 1925 2450 1812 1875 
Q 1700 1300 1562 875 
Q 1425 450 1187 37 
Q 950 -375 775 -600 
Q 600 -400 275 -250 
Q 750 225 987 787 
Q 1225 1350 1312 1837 
Q 1400 2325 1425 2637 
Q 1450 2950 1475 3425 
L 1125 3425 
Q 850 3425 550 3400 
L 550 3900 
Q 825 3850 1175 3850 
L 1500 3850 
Q 1525 4375 1525 4475 
Q 1525 4600 1500 5075 
Q 1775 5050 2125 5025 
Q 2075 4825 2050 4600 
Q 2025 4375 2000 3850 
L 3350 3850 
Q 3325 3650 3325 3425 
L 3125 225 
z
M 5225 725 
L 5225 3700 
L 4150 3700 
L 4150 725 
L 5225 725 
z
" transform="scale(0.015625)"/>
       <path id="SimHei-5165" d="M 5650 -375 
Q 5050 25 4500 650 
Q 3950 1275 3275 3050 
Q 2575 975 675 -475 
Q 575 -225 225 50 
Q 1850 825 2975 3525 
Q 2900 3725 2525 4125 
Q 2150 4525 1750 4675 
Q 2025 4900 2175 5125 
Q 2800 4650 3175 4225 
Q 3550 3800 4125 2375 
Q 4700 950 6125 250 
Q 5775 0 5650 -375 
z
" transform="scale(0.015625)"/>
       <path id="SimHei-7269" d="M 5550 3775 
L 5225 3775 
Q 5175 2925 5062 2312 
Q 4950 1700 4700 1225 
Q 4450 750 4087 337 
Q 3725 -75 3100 -475 
Q 2950 -250 2650 -75 
Q 3275 175 3662 575 
Q 4050 975 4275 1462 
Q 4500 1950 4600 2537 
Q 4700 3125 4750 3775 
L 4325 3775 
Q 4250 3025 3912 2275 
Q 3575 1525 3075 1025 
Q 2925 1250 2600 1350 
Q 3175 1825 3462 2400 
Q 3750 2975 3875 3775 
L 3500 3775 
Q 3175 3125 2950 2800 
Q 2750 2975 2500 3050 
Q 3025 3750 3275 4375 
Q 3525 5000 3575 5275 
Q 3925 5125 4200 5050 
Q 4075 4950 3962 4725 
Q 3850 4500 3725 4200 
L 6075 4200 
Q 5975 3100 5937 1850 
Q 5900 600 5862 225 
Q 5825 -150 5500 -287 
Q 5175 -425 4550 -500 
Q 4525 -225 4300 75 
Q 5025 25 5187 100 
Q 5350 175 5375 525 
L 5550 3775 
z
M 1250 4325 
Q 1100 4125 1025 3700 
L 1600 3700 
L 1600 4525 
Q 1600 4900 1550 5200 
L 2100 5200 
Q 2075 4900 2075 4525 
L 2075 3700 
Q 2325 3700 2650 3725 
L 2650 3275 
Q 2300 3300 2075 3300 
L 2075 2000 
Q 2500 2100 2775 2225 
Q 2775 2000 2800 1775 
Q 2475 1675 2075 1550 
L 2075 375 
Q 2075 -50 2100 -600 
L 1550 -600 
Q 1600 -100 1600 375 
L 1600 1425 
Q 1325 1350 1062 1262 
Q 800 1175 500 1025 
Q 425 1250 250 1575 
Q 700 1625 1600 1850 
L 1600 3300 
L 950 3300 
Q 850 2825 725 2375 
Q 475 2500 225 2500 
Q 450 3025 537 3512 
Q 625 4000 650 4425 
Q 925 4350 1250 4325 
z
" transform="scale(0.015625)"/>
       <path id="SimHei-8f66" d="M 1125 1950 
Q 1000 2300 900 2525 
Q 1225 2650 1562 3062 
Q 1900 3475 2125 3850 
Q 1200 3850 625 3825 
L 625 4325 
Q 1150 4300 2375 4300 
Q 2675 4900 2775 5275 
Q 3075 5125 3350 5025 
Q 3100 4675 2900 4300 
L 4600 4300 
Q 4900 4300 5525 4325 
L 5525 3825 
Q 5025 3850 4600 3850 
L 2675 3850 
Q 2400 3425 1725 2550 
L 3125 2550 
Q 3125 3025 3100 3525 
L 3650 3525 
Q 3625 3100 3625 2550 
L 4475 2550 
Q 4975 2550 5450 2575 
L 5450 2075 
Q 4975 2100 4475 2100 
L 3625 2100 
L 3625 1150 
L 5025 1150 
Q 5500 1150 6075 1175 
L 6075 650 
Q 5500 675 5025 675 
L 3625 675 
Q 3625 -125 3650 -600 
L 3100 -600 
Q 3125 -100 3125 675 
L 1400 675 
Q 850 675 350 650 
L 350 1175 
Q 850 1150 1400 1150 
L 3125 1150 
L 3125 2100 
Q 2225 2100 1875 2075 
Q 1525 2050 1125 1950 
z
" transform="scale(0.015625)"/>
      </defs>
      <use xlink:href="#SimHei-52a0"/>
      <use xlink:href="#SimHei-5165" x="100"/>
      <use xlink:href="#SimHei-8d2d" x="200"/>
      <use xlink:href="#SimHei-7269" x="300"/>
      <use xlink:href="#SimHei-8f66" x="400"/>
      <use xlink:href="#SimHei-91cf" x="500"/>
     </g>
    </g>
    <g id="line2d_35">
     <path d="M 117 85.028125 
L 127 85.028125 
L 137 85.028125 
" style="fill: none; stroke: #008000; stroke-width: 1.5; stroke-linecap: square"/>
    </g>
    <g id="text_35">
     <!-- 收藏量 -->
     <g transform="translate(145 88.528125) scale(0.1 -0.1)">
      <defs>
       <path id="SimHei-6536" d="M 4250 5050 
Q 4125 4850 3750 4050 
L 5150 4050 
Q 5675 4050 6125 4075 
L 6125 3600 
Q 5675 3625 5300 3625 
Q 5225 2625 5025 1975 
Q 4825 1325 4575 900 
Q 4900 500 5287 275 
Q 5675 50 6200 -75 
Q 5900 -275 5800 -550 
Q 5300 -350 4950 -100 
Q 4600 150 4275 525 
Q 3800 0 2775 -625 
Q 2650 -425 2300 -225 
Q 3275 150 3950 925 
Q 3775 1325 3612 1787 
Q 3450 2250 3250 3000 
Q 2975 2450 2825 2275 
Q 2650 2400 2425 2525 
Q 2775 3025 3137 3837 
Q 3500 4650 3625 5250 
Q 3925 5125 4250 5050 
z
M 975 4275 
Q 925 3950 925 3450 
L 925 1575 
L 1775 1725 
L 1775 4425 
Q 1775 4775 1750 5150 
L 2250 5150 
Q 2225 4850 2225 4450 
L 2225 300 
Q 2225 -50 2250 -550 
L 1750 -550 
Q 1775 -25 1775 350 
L 1775 1350 
Q 625 1050 500 925 
Q 375 1125 225 1350 
Q 450 1475 450 1800 
L 450 3575 
Q 450 3925 425 4275 
L 975 4275 
z
M 3725 3150 
Q 3800 2700 3962 2212 
Q 4125 1725 4300 1375 
Q 4725 2150 4825 3625 
L 3575 3625 
Q 3400 3275 3300 3100 
L 3725 3150 
z
" transform="scale(0.015625)"/>
       <path id="SimHei-85cf" d="M 3600 1250 
L 3600 1650 
L 2650 1650 
L 2650 1250 
L 3600 1250 
z
M 5325 3600 
Q 5175 3875 4975 4050 
Q 5200 4175 5325 4300 
Q 5475 4100 5700 3825 
Q 5500 3750 5325 3600 
z
M 3100 2000 
L 3100 2500 
L 2650 2500 
L 2650 2000 
L 3100 2000 
z
M 3100 425 
L 3100 900 
L 2650 900 
L 2650 425 
L 3100 425 
z
M 3725 4000 
L 3725 4325 
L 2600 4325 
L 2600 3900 
L 2150 3900 
Q 2175 4125 2175 4325 
L 1200 4325 
Q 850 4325 475 4275 
L 475 4725 
Q 850 4700 1200 4675 
L 2175 4675 
Q 2175 4850 2150 5225 
L 2625 5225 
Q 2600 4850 2600 4675 
L 3725 4675 
Q 3725 4875 3700 5250 
L 4200 5250 
Q 4150 4875 4150 4675 
L 5250 4675 
Q 5525 4675 5975 4725 
L 5975 4275 
Q 5600 4325 5250 4325 
L 4150 4325 
Q 4150 4150 4175 4000 
L 3725 4000 
z
M 4125 3950 
Q 4400 3925 4625 3925 
Q 4600 3675 4600 3550 
L 5050 3550 
Q 5450 3550 5925 3575 
L 5925 3175 
Q 5475 3200 5050 3200 
L 4625 3200 
Q 4675 2500 4762 2025 
Q 4850 1550 4925 1225 
Q 5075 1525 5175 1937 
Q 5275 2350 5325 2800 
Q 5500 2700 5850 2575 
Q 5750 2325 5587 1775 
Q 5425 1225 5150 700 
Q 5375 275 5525 100 
Q 5675 -75 5700 87 
Q 5725 250 5750 550 
Q 5925 375 6175 300 
Q 6025 -600 5775 -600 
Q 5550 -600 5300 -325 
Q 5050 -50 4850 325 
Q 4600 25 4337 -187 
Q 4075 -400 3775 -625 
Q 3625 -375 3450 -225 
Q 3650 -125 3875 25 
Q 3625 50 2225 50 
Q 2250 450 2250 950 
L 2250 2025 
Q 2250 2475 2225 2900 
Q 3525 2875 3975 2900 
L 3975 2500 
L 3500 2500 
L 3500 2000 
L 4000 2000 
L 4000 900 
L 3500 900 
L 3500 425 
L 4000 425 
L 4000 75 
Q 4325 350 4650 775 
Q 4425 1425 4337 2025 
Q 4250 2625 4200 3200 
L 1925 3200 
Q 1925 1650 1900 1187 
Q 1875 725 1762 262 
Q 1650 -200 1400 -675 
Q 1175 -550 925 -475 
Q 1225 -50 1337 425 
Q 1450 900 1475 1400 
L 1100 1400 
Q 1100 1000 1000 612 
Q 900 225 600 -250 
Q 450 -125 200 0 
Q 400 225 537 562 
Q 675 900 700 1400 
Q 525 1400 275 1375 
L 275 1825 
Q 650 1800 1075 1800 
L 1475 1800 
L 1475 2375 
L 575 2375 
Q 600 2700 600 3050 
Q 600 3425 575 3725 
L 1000 3725 
Q 975 3425 975 3125 
L 975 2775 
L 1475 2775 
Q 1475 3275 1450 3550 
L 4150 3550 
Q 4150 3725 4125 3950 
z
" transform="scale(0.015625)"/>
      </defs>
      <use xlink:href="#SimHei-6536"/>
      <use xlink:href="#SimHei-85cf" x="100"/>
      <use xlink:href="#SimHei-91cf" x="200"/>
     </g>
    </g>
    <g id="patch_32">
     <path d="M 117 102.746875 
L 137 102.746875 
L 137 95.746875 
L 117 95.746875 
z
" style="fill: #1f77b4"/>
    </g>
    <g id="text_36">
     <!-- 访问量 -->
     <g transform="translate(145 102.746875) scale(0.1 -0.1)">
      <use xlink:href="#SimHei-8bbf"/>
      <use xlink:href="#SimHei-95ee" x="100"/>
      <use xlink:href="#SimHei-91cf" x="200"/>
     </g>
    </g>
   </g>
  </g>
 </g>
 <defs>
  <clipPath id="pf4ebdfcb9a">
   <rect x="108" y="43.2" width="669.6" height="277.2"/>
  </clipPath>
 </defs>
</svg>
