<?xml version="1.0" encoding="utf-8" standalone="no"?>
<!DOCTYPE svg PUBLIC "-//W3C//DTD SVG 1.1//EN"
  "http://www.w3.org/Graphics/SVG/1.1/DTD/svg11.dtd">
<svg xmlns:xlink="http://www.w3.org/1999/xlink" width="864pt" height="360pt" viewBox="0 0 864 360" xmlns="http://www.w3.org/2000/svg" version="1.1">
 <metadata>
  <rdf:RDF xmlns:dc="http://purl.org/dc/elements/1.1/" xmlns:cc="http://creativecommons.org/ns#" xmlns:rdf="http://www.w3.org/1999/02/22-rdf-syntax-ns#">
   <cc:Work>
    <dc:type rdf:resource="http://purl.org/dc/dcmitype/StillImage"/>
    <dc:date>2023-08-03T13:15:43.407142</dc:date>
    <dc:format>image/svg+xml</dc:format>
    <dc:creator>
     <cc:Agent>
      <dc:title>Matplotlib v3.7.0, https://matplotlib.org/</dc:title>
     </cc:Agent>
    </dc:creator>
   </cc:Work>
  </rdf:RDF>
 </metadata>
 <defs>
  <style type="text/css">*{stroke-linejoin: round; stroke-linecap: butt}</style>
 </defs>
 <g id="figure_1">
  <g id="patch_1">
   <path d="M 0 360 
L 864 360 
L 864 0 
L 0 0 
z
" style="fill: #ffffff"/>
  </g>
  <g id="axes_1">
   <g id="patch_2">
    <path d="M 108 169.2 
L 412.363636 169.2 
L 412.363636 43.2 
L 108 43.2 
z
" style="fill: #ffffff"/>
   </g>
   <g id="patch_3">
    <path d="M 121.834711 169.2 
L 136.791155 169.2 
L 136.791155 52.992366 
L 121.834711 52.992366 
z
" clip-path="url(#p94b2118184)" style="fill: #1f77b4"/>
   </g>
   <g id="patch_4">
    <path d="M 140.530266 169.2 
L 155.48671 169.2 
L 155.48671 51.581679 
L 140.530266 51.581679 
z
" clip-path="url(#p94b2118184)" style="fill: #1f77b4"/>
   </g>
   <g id="patch_5">
    <path d="M 159.225821 169.2 
L 174.182265 169.2 
L 174.182265 53.175573 
L 159.225821 53.175573 
z
" clip-path="url(#p94b2118184)" style="fill: #1f77b4"/>
   </g>
   <g id="patch_6">
    <path d="M 177.921376 169.2 
L 192.87782 169.2 
L 192.87782 54.219847 
L 177.921376 54.219847 
z
" clip-path="url(#p94b2118184)" style="fill: #1f77b4"/>
   </g>
   <g id="patch_7">
    <path d="M 196.616931 169.2 
L 211.573375 169.2 
L 211.573375 55.850382 
L 196.616931 55.850382 
z
" clip-path="url(#p94b2118184)" style="fill: #1f77b4"/>
   </g>
   <g id="patch_8">
    <path d="M 215.312486 169.2 
L 230.26893 169.2 
L 230.26893 52.442748 
L 215.312486 52.442748 
z
" clip-path="url(#p94b2118184)" style="fill: #1f77b4"/>
   </g>
   <g id="patch_9">
    <path d="M 234.008041 169.2 
L 248.964485 169.2 
L 248.964485 49.877863 
L 234.008041 49.877863 
z
" clip-path="url(#p94b2118184)" style="fill: #1f77b4"/>
   </g>
   <g id="patch_10">
    <path d="M 252.703596 169.2 
L 267.66004 169.2 
L 267.66004 52.845802 
L 252.703596 52.845802 
z
" clip-path="url(#p94b2118184)" style="fill: #1f77b4"/>
   </g>
   <g id="patch_11">
    <path d="M 271.399151 169.2 
L 286.355595 169.2 
L 286.355595 52.735878 
L 271.399151 52.735878 
z
" clip-path="url(#p94b2118184)" style="fill: #1f77b4"/>
   </g>
   <g id="patch_12">
    <path d="M 290.094706 169.2 
L 305.05115 169.2 
L 305.05115 52.699237 
L 290.094706 52.699237 
z
" clip-path="url(#p94b2118184)" style="fill: #1f77b4"/>
   </g>
   <g id="patch_13">
    <path d="M 308.790261 169.2 
L 323.746705 169.2 
L 323.746705 55.81374 
L 308.790261 55.81374 
z
" clip-path="url(#p94b2118184)" style="fill: #1f77b4"/>
   </g>
   <g id="patch_14">
    <path d="M 327.485816 169.2 
L 342.44226 169.2 
L 342.44226 55.172519 
L 327.485816 55.172519 
z
" clip-path="url(#p94b2118184)" style="fill: #1f77b4"/>
   </g>
   <g id="patch_15">
    <path d="M 346.181371 169.2 
L 361.137816 169.2 
L 361.137816 52.332824 
L 346.181371 52.332824 
z
" clip-path="url(#p94b2118184)" style="fill: #1f77b4"/>
   </g>
   <g id="patch_16">
    <path d="M 364.876927 169.2 
L 379.833371 169.2 
L 379.833371 49.309924 
L 364.876927 49.309924 
z
" clip-path="url(#p94b2118184)" style="fill: #1f77b4"/>
   </g>
   <g id="patch_17">
    <path d="M 383.572482 169.2 
L 398.528926 169.2 
L 398.528926 49.2 
L 383.572482 49.2 
z
" clip-path="url(#p94b2118184)" style="fill: #1f77b4"/>
   </g>
   <g id="matplotlib.axis_1">
    <g id="xtick_1">
     <g id="line2d_1">
      <defs>
       <path id="m291c40c463" d="M 0 0 
L 0 3.5 
" style="stroke: #000000; stroke-width: 0.8"/>
      </defs>
      <g>
       <use xlink:href="#m291c40c463" x="129.312933" y="169.2" style="stroke: #000000; stroke-width: 0.8"/>
      </g>
     </g>
     <g id="text_1">
      <!-- 11-18 (Tue) -->
      <g transform="translate(112.008152 220.256067) rotate(-45) scale(0.1 -0.1)">
       <defs>
        <path id="SimHei-31" d="M 1400 3600 
Q 1075 3275 575 2975 
L 575 3450 
Q 1200 3875 1600 4450 
L 1900 4450 
L 1900 150 
L 1400 150 
L 1400 3600 
z
" transform="scale(0.015625)"/>
        <path id="SimHei-2d" d="M 2975 2125 
L 125 2125 
L 125 2525 
L 2975 2525 
L 2975 2125 
z
" transform="scale(0.015625)"/>
        <path id="SimHei-38" d="M 175 1375 
Q 175 1675 325 1962 
Q 475 2250 825 2425 
Q 525 2600 425 2812 
Q 325 3025 312 3300 
Q 300 3575 387 3775 
Q 475 3975 650 4150 
Q 825 4325 1037 4387 
Q 1250 4450 1500 4450 
Q 1750 4450 1950 4400 
Q 2150 4350 2375 4187 
Q 2600 4025 2700 3725 
Q 2800 3425 2687 3025 
Q 2575 2625 2100 2400 
Q 2525 2275 2700 2012 
Q 2875 1750 2875 1375 
Q 2875 1000 2762 775 
Q 2650 550 2512 400 
Q 2375 250 2137 162 
Q 1900 75 1537 75 
Q 1175 75 912 162 
Q 650 250 475 425 
Q 300 600 237 837 
Q 175 1075 175 1375 
z
M 687 1400 
Q 675 1100 787 875 
Q 900 650 1200 587 
Q 1500 525 1825 600 
Q 2150 675 2275 950 
Q 2400 1225 2362 1500 
Q 2325 1775 2050 1962 
Q 1775 2150 1450 2125 
Q 1125 2100 912 1900 
Q 700 1700 687 1400 
z
M 775 3350 
Q 775 3100 950 2875 
Q 1125 2650 1500 2650 
Q 1875 2650 2062 2875 
Q 2250 3100 2237 3412 
Q 2225 3725 2012 3875 
Q 1800 4025 1437 4000 
Q 1075 3975 925 3787 
Q 775 3600 775 3350 
z
" transform="scale(0.015625)"/>
        <path id="SimHei-20" transform="scale(0.015625)"/>
        <path id="SimHei-28" d="M 2975 -200 
L 2700 -475 
Q 2075 125 1762 775 
Q 1450 1425 1450 2250 
Q 1450 3075 1762 3725 
Q 2075 4375 2700 5000 
L 2975 4725 
Q 2400 4175 2112 3587 
Q 1825 3000 1825 2250 
Q 1825 1500 2112 912 
Q 2400 325 2975 -200 
z
" transform="scale(0.015625)"/>
        <path id="SimHei-54" d="M 2850 3925 
L 1850 3925 
L 1850 125 
L 1275 125 
L 1275 3925 
L 275 3925 
L 275 4400 
L 2850 4400 
L 2850 3925 
z
" transform="scale(0.015625)"/>
        <path id="SimHei-75" d="M 2800 125 
L 2300 125 
L 2300 650 
Q 2100 375 1862 225 
Q 1625 75 1250 75 
Q 800 75 575 325 
Q 350 575 350 950 
L 350 2925 
L 850 2925 
L 850 1125 
Q 850 825 1000 650 
Q 1150 475 1400 475 
Q 1725 475 2012 812 
Q 2300 1150 2300 1650 
L 2300 2925 
L 2800 2925 
L 2800 125 
z
" transform="scale(0.015625)"/>
        <path id="SimHei-65" d="M 2850 1075 
Q 2800 625 2450 350 
Q 2100 75 1625 75 
Q 1025 75 637 462 
Q 250 850 250 1525 
Q 250 2200 637 2587 
Q 1025 2975 1625 2975 
Q 2150 2975 2487 2637 
Q 2825 2300 2825 1525 
L 800 1525 
Q 800 975 1037 750 
Q 1275 525 1625 525 
Q 1900 525 2075 662 
Q 2250 800 2300 1075 
L 2850 1075 
z
M 2250 1925 
Q 2200 2275 2025 2412 
Q 1850 2550 1575 2550 
Q 1325 2550 1125 2412 
Q 925 2275 825 1925 
L 2250 1925 
z
" transform="scale(0.015625)"/>
        <path id="SimHei-29" d="M 1675 2250 
Q 1675 1425 1362 775 
Q 1050 125 425 -475 
L 150 -200 
Q 725 325 1012 912 
Q 1300 1500 1300 2250 
Q 1300 3000 1012 3587 
Q 725 4175 150 4725 
L 425 5000 
Q 1050 4375 1362 3725 
Q 1675 3075 1675 2250 
z
" transform="scale(0.015625)"/>
       </defs>
       <use xlink:href="#SimHei-31"/>
       <use xlink:href="#SimHei-31" x="50"/>
       <use xlink:href="#SimHei-2d" x="100"/>
       <use xlink:href="#SimHei-31" x="150"/>
       <use xlink:href="#SimHei-38" x="200"/>
       <use xlink:href="#SimHei-20" x="250"/>
       <use xlink:href="#SimHei-28" x="300"/>
       <use xlink:href="#SimHei-54" x="350"/>
       <use xlink:href="#SimHei-75" x="400"/>
       <use xlink:href="#SimHei-65" x="450"/>
       <use xlink:href="#SimHei-29" x="500"/>
      </g>
     </g>
    </g>
    <g id="xtick_2">
     <g id="line2d_2">
      <g>
       <use xlink:href="#m291c40c463" x="148.008488" y="169.2" style="stroke: #000000; stroke-width: 0.8"/>
      </g>
     </g>
     <g id="text_2">
      <!-- 11-19 (Wed) -->
      <g transform="translate(130.703707 220.256067) rotate(-45) scale(0.1 -0.1)">
       <defs>
        <path id="SimHei-39" d="M 800 75 
Q 1350 1000 1700 1750 
Q 1075 1650 662 1912 
Q 250 2175 162 2625 
Q 75 3075 175 3437 
Q 275 3800 487 4037 
Q 700 4275 1000 4375 
Q 1300 4475 1537 4475 
Q 1775 4475 2025 4375 
Q 2275 4275 2475 4075 
Q 2675 3875 2750 3662 
Q 2825 3450 2825 3112 
Q 2825 2775 2575 2250 
Q 2325 1725 1350 75 
L 800 75 
z
M 662 2875 
Q 700 2550 937 2337 
Q 1175 2125 1450 2150 
Q 1725 2175 1887 2300 
Q 2050 2425 2200 2725 
Q 2300 3100 2250 3362 
Q 2200 3625 1987 3800 
Q 1775 3975 1525 3975 
Q 1375 4000 1137 3900 
Q 900 3800 762 3500 
Q 625 3200 662 2875 
z
" transform="scale(0.015625)"/>
        <path id="SimHei-57" d="M 3075 4400 
L 2525 75 
L 2025 75 
L 1575 3275 
L 1525 3275 
L 1075 75 
L 575 75 
L 25 4400 
L 575 4400 
L 850 1675 
L 900 1675 
L 1275 4400 
L 1825 4400 
L 2200 1675 
L 2250 1675 
L 2525 4400 
L 3075 4400 
z
" transform="scale(0.015625)"/>
        <path id="SimHei-64" d="M 2750 125 
L 2250 125 
L 2250 500 
Q 2100 275 1900 175 
Q 1700 75 1425 75 
Q 925 75 575 437 
Q 225 800 225 1525 
Q 225 2250 575 2625 
Q 925 3000 1425 3000 
Q 1700 3000 1900 2887 
Q 2100 2775 2250 2550 
L 2250 4400 
L 2750 4400 
L 2750 125 
z
M 2250 1525 
Q 2250 2000 2037 2275 
Q 1825 2550 1525 2550 
Q 1150 2550 962 2275 
Q 775 2000 775 1525 
Q 775 1050 962 787 
Q 1150 525 1525 525 
Q 1825 525 2037 787 
Q 2250 1050 2250 1525 
z
" transform="scale(0.015625)"/>
       </defs>
       <use xlink:href="#SimHei-31"/>
       <use xlink:href="#SimHei-31" x="50"/>
       <use xlink:href="#SimHei-2d" x="100"/>
       <use xlink:href="#SimHei-31" x="150"/>
       <use xlink:href="#SimHei-39" x="200"/>
       <use xlink:href="#SimHei-20" x="250"/>
       <use xlink:href="#SimHei-28" x="300"/>
       <use xlink:href="#SimHei-57" x="350"/>
       <use xlink:href="#SimHei-65" x="400"/>
       <use xlink:href="#SimHei-64" x="450"/>
       <use xlink:href="#SimHei-29" x="500"/>
      </g>
     </g>
    </g>
    <g id="xtick_3">
     <g id="line2d_3">
      <g>
       <use xlink:href="#m291c40c463" x="166.704043" y="169.2" style="stroke: #000000; stroke-width: 0.8"/>
      </g>
     </g>
     <g id="text_3">
      <!-- 11-20 (Thu) -->
      <g transform="translate(149.399262 220.256067) rotate(-45) scale(0.1 -0.1)">
       <defs>
        <path id="SimHei-32" d="M 300 250 
Q 325 625 650 925 
Q 975 1225 1475 1862 
Q 1975 2500 2125 2850 
Q 2275 3200 2237 3450 
Q 2200 3700 2000 3862 
Q 1800 4025 1537 4000 
Q 1275 3975 1037 3800 
Q 800 3625 675 3275 
L 200 3350 
Q 400 3925 712 4187 
Q 1025 4450 1450 4475 
Q 1700 4500 1900 4462 
Q 2100 4425 2312 4287 
Q 2525 4150 2662 3875 
Q 2800 3600 2762 3212 
Q 2725 2825 2375 2287 
Q 2025 1750 1025 600 
L 2825 600 
L 2825 150 
L 300 150 
L 300 250 
z
" transform="scale(0.015625)"/>
        <path id="SimHei-30" d="M 225 2537 
Q 250 3200 412 3587 
Q 575 3975 875 4225 
Q 1175 4475 1612 4475 
Q 2050 4475 2375 4112 
Q 2700 3750 2800 3200 
Q 2900 2650 2862 1937 
Q 2825 1225 2612 775 
Q 2400 325 1975 150 
Q 1550 -25 1125 187 
Q 700 400 525 750 
Q 350 1100 275 1487 
Q 200 1875 225 2537 
z
M 750 2687 
Q 675 2000 800 1462 
Q 925 925 1212 700 
Q 1500 475 1800 612 
Q 2100 750 2237 1162 
Q 2375 1575 2375 2062 
Q 2375 2550 2337 2950 
Q 2300 3350 2112 3675 
Q 1925 4000 1612 4012 
Q 1300 4025 1062 3700 
Q 825 3375 750 2687 
z
" transform="scale(0.015625)"/>
        <path id="SimHei-68" d="M 2800 125 
L 2300 125 
L 2300 1925 
Q 2300 2225 2150 2400 
Q 2000 2575 1750 2575 
Q 1425 2575 1137 2237 
Q 850 1900 850 1400 
L 850 125 
L 350 125 
L 350 4400 
L 850 4400 
L 850 2400 
Q 1050 2675 1287 2825 
Q 1525 2975 1900 2975 
Q 2350 2975 2575 2725 
Q 2800 2475 2800 2100 
L 2800 125 
z
" transform="scale(0.015625)"/>
       </defs>
       <use xlink:href="#SimHei-31"/>
       <use xlink:href="#SimHei-31" x="50"/>
       <use xlink:href="#SimHei-2d" x="100"/>
       <use xlink:href="#SimHei-32" x="150"/>
       <use xlink:href="#SimHei-30" x="200"/>
       <use xlink:href="#SimHei-20" x="250"/>
       <use xlink:href="#SimHei-28" x="300"/>
       <use xlink:href="#SimHei-54" x="350"/>
       <use xlink:href="#SimHei-68" x="400"/>
       <use xlink:href="#SimHei-75" x="450"/>
       <use xlink:href="#SimHei-29" x="500"/>
      </g>
     </g>
    </g>
    <g id="xtick_4">
     <g id="line2d_4">
      <g>
       <use xlink:href="#m291c40c463" x="185.399598" y="169.2" style="stroke: #000000; stroke-width: 0.8"/>
      </g>
     </g>
     <g id="text_4">
      <!-- 11-21 (Fri) -->
      <g transform="translate(168.094817 220.256067) rotate(-45) scale(0.1 -0.1)">
       <defs>
        <path id="SimHei-46" d="M 2925 3925 
L 875 3925 
L 875 2525 
L 2425 2525 
L 2425 2050 
L 875 2050 
L 875 125 
L 300 125 
L 300 4400 
L 2925 4400 
L 2925 3925 
z
" transform="scale(0.015625)"/>
        <path id="SimHei-72" d="M 2500 2425 
Q 2025 2500 1700 2287 
Q 1375 2075 1150 1550 
L 1150 125 
L 650 125 
L 650 2925 
L 1150 2925 
L 1150 2200 
Q 1375 2600 1712 2787 
Q 2050 2975 2500 2975 
L 2500 2425 
z
" transform="scale(0.015625)"/>
        <path id="SimHei-69" d="M 1800 3725 
L 1300 3725 
L 1300 4375 
L 1800 4375 
L 1800 3725 
z
M 1800 125 
L 1300 125 
L 1300 2925 
L 1800 2925 
L 1800 125 
z
" transform="scale(0.015625)"/>
       </defs>
       <use xlink:href="#SimHei-31"/>
       <use xlink:href="#SimHei-31" x="50"/>
       <use xlink:href="#SimHei-2d" x="100"/>
       <use xlink:href="#SimHei-32" x="150"/>
       <use xlink:href="#SimHei-31" x="200"/>
       <use xlink:href="#SimHei-20" x="250"/>
       <use xlink:href="#SimHei-28" x="300"/>
       <use xlink:href="#SimHei-46" x="350"/>
       <use xlink:href="#SimHei-72" x="400"/>
       <use xlink:href="#SimHei-69" x="450"/>
       <use xlink:href="#SimHei-29" x="500"/>
      </g>
     </g>
    </g>
    <g id="xtick_5">
     <g id="line2d_5">
      <g>
       <use xlink:href="#m291c40c463" x="204.095153" y="169.2" style="stroke: #000000; stroke-width: 0.8"/>
      </g>
     </g>
     <g id="text_5">
      <!-- 11-22 (Sat) -->
      <g transform="translate(186.790372 220.256067) rotate(-45) scale(0.1 -0.1)">
       <defs>
        <path id="SimHei-53" d="M 2900 1325 
Q 2900 750 2537 412 
Q 2175 75 1550 75 
Q 925 75 575 425 
Q 225 775 225 1300 
L 225 1475 
L 800 1475 
L 800 1325 
Q 800 950 1025 750 
Q 1250 550 1550 550 
Q 1950 550 2137 762 
Q 2325 975 2325 1275 
Q 2325 1525 2100 1737 
Q 1875 1950 1450 2125 
Q 850 2350 587 2625 
Q 325 2900 325 3275 
Q 325 3800 687 4125 
Q 1050 4450 1550 4450 
Q 2200 4450 2487 4062 
Q 2775 3675 2775 3225 
L 2200 3225 
Q 2225 3500 2050 3725 
Q 1875 3950 1550 3950 
Q 1250 3950 1075 3787 
Q 900 3625 900 3350 
Q 900 3125 1037 2962 
Q 1175 2800 1750 2575 
Q 2300 2350 2600 2037 
Q 2900 1725 2900 1325 
z
" transform="scale(0.015625)"/>
        <path id="SimHei-61" d="M 2875 125 
L 2275 125 
Q 2225 175 2200 262 
Q 2175 350 2175 475 
Q 2000 275 1750 175 
Q 1500 75 1225 75 
Q 825 75 550 275 
Q 275 475 275 850 
Q 275 1225 525 1450 
Q 775 1675 1300 1750 
Q 1650 1800 1912 1875 
Q 2175 1950 2175 2075 
Q 2175 2225 2062 2375 
Q 1950 2525 1575 2525 
Q 1275 2525 1137 2412 
Q 1000 2300 950 2100 
L 400 2100 
Q 450 2500 762 2737 
Q 1075 2975 1575 2975 
Q 2125 2975 2400 2725 
Q 2675 2475 2675 2025 
L 2675 650 
Q 2675 500 2725 375 
Q 2775 250 2875 125 
z
M 2175 1050 
L 2175 1550 
Q 2025 1500 1887 1462 
Q 1750 1425 1425 1375 
Q 1050 1325 937 1200 
Q 825 1075 825 900 
Q 825 750 937 637 
Q 1050 525 1275 525 
Q 1500 525 1762 650 
Q 2025 775 2175 1050 
z
" transform="scale(0.015625)"/>
        <path id="SimHei-74" d="M 2750 200 
Q 2625 150 2462 112 
Q 2300 75 2025 75 
Q 1575 75 1300 325 
Q 1025 575 1025 1025 
L 1025 2525 
L 175 2525 
L 175 2925 
L 1025 2925 
L 1025 3900 
L 1525 3900 
L 1525 2925 
L 2550 2925 
L 2550 2525 
L 1525 2525 
L 1525 1000 
Q 1525 800 1625 662 
Q 1725 525 2000 525 
Q 2275 525 2450 575 
Q 2625 625 2750 700 
L 2750 200 
z
" transform="scale(0.015625)"/>
       </defs>
       <use xlink:href="#SimHei-31"/>
       <use xlink:href="#SimHei-31" x="50"/>
       <use xlink:href="#SimHei-2d" x="100"/>
       <use xlink:href="#SimHei-32" x="150"/>
       <use xlink:href="#SimHei-32" x="200"/>
       <use xlink:href="#SimHei-20" x="250"/>
       <use xlink:href="#SimHei-28" x="300"/>
       <use xlink:href="#SimHei-53" x="350"/>
       <use xlink:href="#SimHei-61" x="400"/>
       <use xlink:href="#SimHei-74" x="450"/>
       <use xlink:href="#SimHei-29" x="500"/>
      </g>
     </g>
    </g>
    <g id="xtick_6">
     <g id="line2d_6">
      <g>
       <use xlink:href="#m291c40c463" x="222.790708" y="169.2" style="stroke: #000000; stroke-width: 0.8"/>
      </g>
     </g>
     <g id="text_6">
      <!-- 11-23 (Sun) -->
      <g transform="translate(205.485927 220.256067) rotate(-45) scale(0.1 -0.1)">
       <defs>
        <path id="SimHei-33" d="M 250 1225 
L 700 1300 
Q 800 975 1025 762 
Q 1250 550 1587 562 
Q 1925 575 2125 837 
Q 2325 1100 2300 1437 
Q 2275 1775 2037 1962 
Q 1800 2150 1275 2225 
L 1275 2550 
Q 1800 2600 2037 2825 
Q 2275 3050 2250 3412 
Q 2225 3775 1925 3937 
Q 1625 4100 1287 3975 
Q 950 3850 750 3275 
L 300 3350 
Q 450 3800 712 4100 
Q 975 4400 1425 4450 
Q 1875 4500 2212 4337 
Q 2550 4175 2687 3837 
Q 2825 3500 2725 3100 
Q 2625 2700 2150 2400 
Q 2500 2250 2687 1950 
Q 2875 1650 2812 1162 
Q 2750 675 2375 375 
Q 2000 75 1525 87 
Q 1050 100 700 387 
Q 350 675 250 1225 
z
" transform="scale(0.015625)"/>
        <path id="SimHei-6e" d="M 2800 125 
L 2300 125 
L 2300 1925 
Q 2300 2225 2150 2400 
Q 2000 2575 1750 2575 
Q 1425 2575 1137 2237 
Q 850 1900 850 1400 
L 850 125 
L 350 125 
L 350 2925 
L 850 2925 
L 850 2400 
Q 1050 2675 1287 2825 
Q 1525 2975 1900 2975 
Q 2350 2975 2575 2725 
Q 2800 2475 2800 2100 
L 2800 125 
z
" transform="scale(0.015625)"/>
       </defs>
       <use xlink:href="#SimHei-31"/>
       <use xlink:href="#SimHei-31" x="50"/>
       <use xlink:href="#SimHei-2d" x="100"/>
       <use xlink:href="#SimHei-32" x="150"/>
       <use xlink:href="#SimHei-33" x="200"/>
       <use xlink:href="#SimHei-20" x="250"/>
       <use xlink:href="#SimHei-28" x="300"/>
       <use xlink:href="#SimHei-53" x="350"/>
       <use xlink:href="#SimHei-75" x="400"/>
       <use xlink:href="#SimHei-6e" x="450"/>
       <use xlink:href="#SimHei-29" x="500"/>
      </g>
     </g>
    </g>
    <g id="xtick_7">
     <g id="line2d_7">
      <g>
       <use xlink:href="#m291c40c463" x="241.486263" y="169.2" style="stroke: #000000; stroke-width: 0.8"/>
      </g>
     </g>
     <g id="text_7">
      <!-- 11-24 (Mon) -->
      <g transform="translate(224.181482 220.256067) rotate(-45) scale(0.1 -0.1)">
       <defs>
        <path id="SimHei-34" d="M 2000 1100 
L 75 1100 
L 75 1525 
L 2100 4450 
L 2475 4450 
L 2475 1525 
L 3075 1525 
L 3075 1100 
L 2475 1100 
L 2475 150 
L 2000 150 
L 2000 1100 
z
M 2000 1525 
L 2000 3500 
L 600 1525 
L 2000 1525 
z
" transform="scale(0.015625)"/>
        <path id="SimHei-4d" d="M 2925 125 
L 2425 125 
L 2425 3175 
L 2375 3175 
L 1775 125 
L 1375 125 
L 775 3175 
L 725 3175 
L 725 125 
L 225 125 
L 225 4400 
L 1000 4400 
L 1550 1575 
L 1600 1575 
L 2150 4400 
L 2925 4400 
L 2925 125 
z
" transform="scale(0.015625)"/>
        <path id="SimHei-6f" d="M 2925 1525 
Q 2925 875 2525 475 
Q 2125 75 1575 75 
Q 1025 75 625 475 
Q 225 875 225 1525 
Q 225 2175 625 2575 
Q 1025 2975 1575 2975 
Q 2125 2975 2525 2575 
Q 2925 2175 2925 1525 
z
M 2375 1525 
Q 2375 2025 2125 2275 
Q 1875 2525 1575 2525 
Q 1275 2525 1025 2275 
Q 775 2025 775 1525 
Q 775 1025 1025 775 
Q 1275 525 1575 525 
Q 1875 525 2125 775 
Q 2375 1025 2375 1525 
z
" transform="scale(0.015625)"/>
       </defs>
       <use xlink:href="#SimHei-31"/>
       <use xlink:href="#SimHei-31" x="50"/>
       <use xlink:href="#SimHei-2d" x="100"/>
       <use xlink:href="#SimHei-32" x="150"/>
       <use xlink:href="#SimHei-34" x="200"/>
       <use xlink:href="#SimHei-20" x="250"/>
       <use xlink:href="#SimHei-28" x="300"/>
       <use xlink:href="#SimHei-4d" x="350"/>
       <use xlink:href="#SimHei-6f" x="400"/>
       <use xlink:href="#SimHei-6e" x="450"/>
       <use xlink:href="#SimHei-29" x="500"/>
      </g>
     </g>
    </g>
    <g id="xtick_8">
     <g id="line2d_8">
      <g>
       <use xlink:href="#m291c40c463" x="260.181818" y="169.2" style="stroke: #000000; stroke-width: 0.8"/>
      </g>
     </g>
     <g id="text_8">
      <!-- 11-25 (Tue) -->
      <g transform="translate(242.877037 220.256067) rotate(-45) scale(0.1 -0.1)">
       <defs>
        <path id="SimHei-35" d="M 550 1325 
Q 725 650 1150 575 
Q 1575 500 1837 662 
Q 2100 825 2212 1087 
Q 2325 1350 2312 1675 
Q 2300 2000 2137 2225 
Q 1975 2450 1725 2525 
Q 1475 2600 1162 2525 
Q 850 2450 650 2175 
L 225 2225 
Q 275 2375 700 4375 
L 2675 4375 
L 2675 3925 
L 1075 3925 
Q 950 3250 825 2850 
Q 1200 3025 1525 3012 
Q 1850 3000 2150 2862 
Q 2450 2725 2587 2487 
Q 2725 2250 2787 2012 
Q 2850 1775 2837 1500 
Q 2825 1225 2725 937 
Q 2625 650 2425 462 
Q 2225 275 1937 162 
Q 1650 50 1275 75 
Q 900 100 562 350 
Q 225 600 100 1200 
L 550 1325 
z
" transform="scale(0.015625)"/>
       </defs>
       <use xlink:href="#SimHei-31"/>
       <use xlink:href="#SimHei-31" x="50"/>
       <use xlink:href="#SimHei-2d" x="100"/>
       <use xlink:href="#SimHei-32" x="150"/>
       <use xlink:href="#SimHei-35" x="200"/>
       <use xlink:href="#SimHei-20" x="250"/>
       <use xlink:href="#SimHei-28" x="300"/>
       <use xlink:href="#SimHei-54" x="350"/>
       <use xlink:href="#SimHei-75" x="400"/>
       <use xlink:href="#SimHei-65" x="450"/>
       <use xlink:href="#SimHei-29" x="500"/>
      </g>
     </g>
    </g>
    <g id="xtick_9">
     <g id="line2d_9">
      <g>
       <use xlink:href="#m291c40c463" x="278.877373" y="169.2" style="stroke: #000000; stroke-width: 0.8"/>
      </g>
     </g>
     <g id="text_9">
      <!-- 11-26 (Wed) -->
      <g transform="translate(261.572592 220.256067) rotate(-45) scale(0.1 -0.1)">
       <defs>
        <path id="SimHei-36" d="M 250 1612 
Q 275 1975 387 2225 
Q 500 2475 725 2850 
L 1750 4450 
L 2325 4450 
L 1275 2800 
Q 1950 2975 2350 2750 
Q 2750 2525 2887 2237 
Q 3025 1950 3037 1612 
Q 3050 1275 2937 950 
Q 2825 625 2537 362 
Q 2250 100 1737 75 
Q 1225 50 862 262 
Q 500 475 362 862 
Q 225 1250 250 1612 
z
M 1025 787 
Q 1250 550 1625 525 
Q 2000 500 2250 775 
Q 2500 1050 2500 1575 
Q 2500 2100 2187 2300 
Q 1875 2500 1487 2450 
Q 1100 2400 925 2075 
Q 750 1750 775 1387 
Q 800 1025 1025 787 
z
" transform="scale(0.015625)"/>
       </defs>
       <use xlink:href="#SimHei-31"/>
       <use xlink:href="#SimHei-31" x="50"/>
       <use xlink:href="#SimHei-2d" x="100"/>
       <use xlink:href="#SimHei-32" x="150"/>
       <use xlink:href="#SimHei-36" x="200"/>
       <use xlink:href="#SimHei-20" x="250"/>
       <use xlink:href="#SimHei-28" x="300"/>
       <use xlink:href="#SimHei-57" x="350"/>
       <use xlink:href="#SimHei-65" x="400"/>
       <use xlink:href="#SimHei-64" x="450"/>
       <use xlink:href="#SimHei-29" x="500"/>
      </g>
     </g>
    </g>
    <g id="xtick_10">
     <g id="line2d_10">
      <g>
       <use xlink:href="#m291c40c463" x="297.572928" y="169.2" style="stroke: #000000; stroke-width: 0.8"/>
      </g>
     </g>
     <g id="text_10">
      <!-- 11-27 (Thu) -->
      <g transform="translate(280.268147 220.256067) rotate(-45) scale(0.1 -0.1)">
       <defs>
        <path id="SimHei-37" d="M 850 150 
Q 1300 2050 2425 3925 
L 275 3925 
L 275 4375 
L 2950 4375 
L 2950 3950 
Q 1775 2050 1400 150 
L 850 150 
z
" transform="scale(0.015625)"/>
       </defs>
       <use xlink:href="#SimHei-31"/>
       <use xlink:href="#SimHei-31" x="50"/>
       <use xlink:href="#SimHei-2d" x="100"/>
       <use xlink:href="#SimHei-32" x="150"/>
       <use xlink:href="#SimHei-37" x="200"/>
       <use xlink:href="#SimHei-20" x="250"/>
       <use xlink:href="#SimHei-28" x="300"/>
       <use xlink:href="#SimHei-54" x="350"/>
       <use xlink:href="#SimHei-68" x="400"/>
       <use xlink:href="#SimHei-75" x="450"/>
       <use xlink:href="#SimHei-29" x="500"/>
      </g>
     </g>
    </g>
    <g id="xtick_11">
     <g id="line2d_11">
      <g>
       <use xlink:href="#m291c40c463" x="316.268483" y="169.2" style="stroke: #000000; stroke-width: 0.8"/>
      </g>
     </g>
     <g id="text_11">
      <!-- 11-28 (Fri) -->
      <g transform="translate(298.963702 220.256067) rotate(-45) scale(0.1 -0.1)">
       <use xlink:href="#SimHei-31"/>
       <use xlink:href="#SimHei-31" x="50"/>
       <use xlink:href="#SimHei-2d" x="100"/>
       <use xlink:href="#SimHei-32" x="150"/>
       <use xlink:href="#SimHei-38" x="200"/>
       <use xlink:href="#SimHei-20" x="250"/>
       <use xlink:href="#SimHei-28" x="300"/>
       <use xlink:href="#SimHei-46" x="350"/>
       <use xlink:href="#SimHei-72" x="400"/>
       <use xlink:href="#SimHei-69" x="450"/>
       <use xlink:href="#SimHei-29" x="500"/>
      </g>
     </g>
    </g>
    <g id="xtick_12">
     <g id="line2d_12">
      <g>
       <use xlink:href="#m291c40c463" x="334.964038" y="169.2" style="stroke: #000000; stroke-width: 0.8"/>
      </g>
     </g>
     <g id="text_12">
      <!-- 11-29 (Sat) -->
      <g transform="translate(317.659257 220.256067) rotate(-45) scale(0.1 -0.1)">
       <use xlink:href="#SimHei-31"/>
       <use xlink:href="#SimHei-31" x="50"/>
       <use xlink:href="#SimHei-2d" x="100"/>
       <use xlink:href="#SimHei-32" x="150"/>
       <use xlink:href="#SimHei-39" x="200"/>
       <use xlink:href="#SimHei-20" x="250"/>
       <use xlink:href="#SimHei-28" x="300"/>
       <use xlink:href="#SimHei-53" x="350"/>
       <use xlink:href="#SimHei-61" x="400"/>
       <use xlink:href="#SimHei-74" x="450"/>
       <use xlink:href="#SimHei-29" x="500"/>
      </g>
     </g>
    </g>
    <g id="xtick_13">
     <g id="line2d_13">
      <g>
       <use xlink:href="#m291c40c463" x="353.659593" y="169.2" style="stroke: #000000; stroke-width: 0.8"/>
      </g>
     </g>
     <g id="text_13">
      <!-- 11-30 (Sun) -->
      <g transform="translate(336.354812 220.256067) rotate(-45) scale(0.1 -0.1)">
       <use xlink:href="#SimHei-31"/>
       <use xlink:href="#SimHei-31" x="50"/>
       <use xlink:href="#SimHei-2d" x="100"/>
       <use xlink:href="#SimHei-33" x="150"/>
       <use xlink:href="#SimHei-30" x="200"/>
       <use xlink:href="#SimHei-20" x="250"/>
       <use xlink:href="#SimHei-28" x="300"/>
       <use xlink:href="#SimHei-53" x="350"/>
       <use xlink:href="#SimHei-75" x="400"/>
       <use xlink:href="#SimHei-6e" x="450"/>
       <use xlink:href="#SimHei-29" x="500"/>
      </g>
     </g>
    </g>
    <g id="xtick_14">
     <g id="line2d_14">
      <g>
       <use xlink:href="#m291c40c463" x="372.355149" y="169.2" style="stroke: #000000; stroke-width: 0.8"/>
      </g>
     </g>
     <g id="text_14">
      <!-- 12-01 (Mon) -->
      <g transform="translate(355.050367 220.256067) rotate(-45) scale(0.1 -0.1)">
       <use xlink:href="#SimHei-31"/>
       <use xlink:href="#SimHei-32" x="50"/>
       <use xlink:href="#SimHei-2d" x="100"/>
       <use xlink:href="#SimHei-30" x="150"/>
       <use xlink:href="#SimHei-31" x="200"/>
       <use xlink:href="#SimHei-20" x="250"/>
       <use xlink:href="#SimHei-28" x="300"/>
       <use xlink:href="#SimHei-4d" x="350"/>
       <use xlink:href="#SimHei-6f" x="400"/>
       <use xlink:href="#SimHei-6e" x="450"/>
       <use xlink:href="#SimHei-29" x="500"/>
      </g>
     </g>
    </g>
    <g id="xtick_15">
     <g id="line2d_15">
      <g>
       <use xlink:href="#m291c40c463" x="391.050704" y="169.2" style="stroke: #000000; stroke-width: 0.8"/>
      </g>
     </g>
     <g id="text_15">
      <!-- 12-02 (Tue) -->
      <g transform="translate(373.745922 220.256067) rotate(-45) scale(0.1 -0.1)">
       <use xlink:href="#SimHei-31"/>
       <use xlink:href="#SimHei-32" x="50"/>
       <use xlink:href="#SimHei-2d" x="100"/>
       <use xlink:href="#SimHei-30" x="150"/>
       <use xlink:href="#SimHei-32" x="200"/>
       <use xlink:href="#SimHei-20" x="250"/>
       <use xlink:href="#SimHei-28" x="300"/>
       <use xlink:href="#SimHei-54" x="350"/>
       <use xlink:href="#SimHei-75" x="400"/>
       <use xlink:href="#SimHei-65" x="450"/>
       <use xlink:href="#SimHei-29" x="500"/>
      </g>
     </g>
    </g>
   </g>
   <g id="matplotlib.axis_2">
    <g id="ytick_1">
     <g id="line2d_16">
      <defs>
       <path id="m44bb410cc1" d="M 0 0 
L -3.5 0 
" style="stroke: #000000; stroke-width: 0.8"/>
      </defs>
      <g>
       <use xlink:href="#m44bb410cc1" x="108" y="169.2" style="stroke: #000000; stroke-width: 0.8"/>
      </g>
     </g>
     <g id="text_16">
      <!-- 0 -->
      <g transform="translate(96 172.6375) scale(0.1 -0.1)">
       <use xlink:href="#SimHei-30"/>
      </g>
     </g>
    </g>
    <g id="ytick_2">
     <g id="line2d_17">
      <g>
       <use xlink:href="#m44bb410cc1" x="108" y="160.039695" style="stroke: #000000; stroke-width: 0.8"/>
      </g>
     </g>
     <g id="text_17">
      <!-- 500 -->
      <g transform="translate(86 163.477195) scale(0.1 -0.1)">
       <use xlink:href="#SimHei-35"/>
       <use xlink:href="#SimHei-30" x="50"/>
       <use xlink:href="#SimHei-30" x="100"/>
      </g>
     </g>
    </g>
    <g id="ytick_3">
     <g id="line2d_18">
      <g>
       <use xlink:href="#m44bb410cc1" x="108" y="150.879389" style="stroke: #000000; stroke-width: 0.8"/>
      </g>
     </g>
     <g id="text_18">
      <!-- 1000 -->
      <g transform="translate(81 154.316889) scale(0.1 -0.1)">
       <use xlink:href="#SimHei-31"/>
       <use xlink:href="#SimHei-30" x="50"/>
       <use xlink:href="#SimHei-30" x="100"/>
       <use xlink:href="#SimHei-30" x="150"/>
      </g>
     </g>
    </g>
    <g id="ytick_4">
     <g id="line2d_19">
      <g>
       <use xlink:href="#m44bb410cc1" x="108" y="141.719084" style="stroke: #000000; stroke-width: 0.8"/>
      </g>
     </g>
     <g id="text_19">
      <!-- 1500 -->
      <g transform="translate(81 145.156584) scale(0.1 -0.1)">
       <use xlink:href="#SimHei-31"/>
       <use xlink:href="#SimHei-35" x="50"/>
       <use xlink:href="#SimHei-30" x="100"/>
       <use xlink:href="#SimHei-30" x="150"/>
      </g>
     </g>
    </g>
    <g id="ytick_5">
     <g id="line2d_20">
      <g>
       <use xlink:href="#m44bb410cc1" x="108" y="132.558779" style="stroke: #000000; stroke-width: 0.8"/>
      </g>
     </g>
     <g id="text_20">
      <!-- 2000 -->
      <g transform="translate(81 135.996279) scale(0.1 -0.1)">
       <use xlink:href="#SimHei-32"/>
       <use xlink:href="#SimHei-30" x="50"/>
       <use xlink:href="#SimHei-30" x="100"/>
       <use xlink:href="#SimHei-30" x="150"/>
      </g>
     </g>
    </g>
    <g id="ytick_6">
     <g id="line2d_21">
      <g>
       <use xlink:href="#m44bb410cc1" x="108" y="123.398473" style="stroke: #000000; stroke-width: 0.8"/>
      </g>
     </g>
     <g id="text_21">
      <!-- 2500 -->
      <g transform="translate(81 126.835973) scale(0.1 -0.1)">
       <use xlink:href="#SimHei-32"/>
       <use xlink:href="#SimHei-35" x="50"/>
       <use xlink:href="#SimHei-30" x="100"/>
       <use xlink:href="#SimHei-30" x="150"/>
      </g>
     </g>
    </g>
    <g id="ytick_7">
     <g id="line2d_22">
      <g>
       <use xlink:href="#m44bb410cc1" x="108" y="114.238168" style="stroke: #000000; stroke-width: 0.8"/>
      </g>
     </g>
     <g id="text_22">
      <!-- 3000 -->
      <g transform="translate(81 117.675668) scale(0.1 -0.1)">
       <use xlink:href="#SimHei-33"/>
       <use xlink:href="#SimHei-30" x="50"/>
       <use xlink:href="#SimHei-30" x="100"/>
       <use xlink:href="#SimHei-30" x="150"/>
      </g>
     </g>
    </g>
    <g id="ytick_8">
     <g id="line2d_23">
      <g>
       <use xlink:href="#m44bb410cc1" x="108" y="105.077863" style="stroke: #000000; stroke-width: 0.8"/>
      </g>
     </g>
     <g id="text_23">
      <!-- 3500 -->
      <g transform="translate(81 108.515363) scale(0.1 -0.1)">
       <use xlink:href="#SimHei-33"/>
       <use xlink:href="#SimHei-35" x="50"/>
       <use xlink:href="#SimHei-30" x="100"/>
       <use xlink:href="#SimHei-30" x="150"/>
      </g>
     </g>
    </g>
    <g id="ytick_9">
     <g id="line2d_24">
      <g>
       <use xlink:href="#m44bb410cc1" x="108" y="95.917557" style="stroke: #000000; stroke-width: 0.8"/>
      </g>
     </g>
     <g id="text_24">
      <!-- 4000 -->
      <g transform="translate(81 99.355057) scale(0.1 -0.1)">
       <use xlink:href="#SimHei-34"/>
       <use xlink:href="#SimHei-30" x="50"/>
       <use xlink:href="#SimHei-30" x="100"/>
       <use xlink:href="#SimHei-30" x="150"/>
      </g>
     </g>
    </g>
    <g id="ytick_10">
     <g id="line2d_25">
      <g>
       <use xlink:href="#m44bb410cc1" x="108" y="86.757252" style="stroke: #000000; stroke-width: 0.8"/>
      </g>
     </g>
     <g id="text_25">
      <!-- 4500 -->
      <g transform="translate(81 90.194752) scale(0.1 -0.1)">
       <use xlink:href="#SimHei-34"/>
       <use xlink:href="#SimHei-35" x="50"/>
       <use xlink:href="#SimHei-30" x="100"/>
       <use xlink:href="#SimHei-30" x="150"/>
      </g>
     </g>
    </g>
    <g id="ytick_11">
     <g id="line2d_26">
      <g>
       <use xlink:href="#m44bb410cc1" x="108" y="77.596947" style="stroke: #000000; stroke-width: 0.8"/>
      </g>
     </g>
     <g id="text_26">
      <!-- 5000 -->
      <g transform="translate(81 81.034447) scale(0.1 -0.1)">
       <use xlink:href="#SimHei-35"/>
       <use xlink:href="#SimHei-30" x="50"/>
       <use xlink:href="#SimHei-30" x="100"/>
       <use xlink:href="#SimHei-30" x="150"/>
      </g>
     </g>
    </g>
    <g id="ytick_12">
     <g id="line2d_27">
      <g>
       <use xlink:href="#m44bb410cc1" x="108" y="68.436641" style="stroke: #000000; stroke-width: 0.8"/>
      </g>
     </g>
     <g id="text_27">
      <!-- 5500 -->
      <g transform="translate(81 71.874141) scale(0.1 -0.1)">
       <use xlink:href="#SimHei-35"/>
       <use xlink:href="#SimHei-35" x="50"/>
       <use xlink:href="#SimHei-30" x="100"/>
       <use xlink:href="#SimHei-30" x="150"/>
      </g>
     </g>
    </g>
    <g id="ytick_13">
     <g id="line2d_28">
      <g>
       <use xlink:href="#m44bb410cc1" x="108" y="59.276336" style="stroke: #000000; stroke-width: 0.8"/>
      </g>
     </g>
     <g id="text_28">
      <!-- 6000 -->
      <g transform="translate(81 62.713836) scale(0.1 -0.1)">
       <use xlink:href="#SimHei-36"/>
       <use xlink:href="#SimHei-30" x="50"/>
       <use xlink:href="#SimHei-30" x="100"/>
       <use xlink:href="#SimHei-30" x="150"/>
      </g>
     </g>
    </g>
    <g id="ytick_14">
     <g id="line2d_29">
      <g>
       <use xlink:href="#m44bb410cc1" x="108" y="50.116031" style="stroke: #000000; stroke-width: 0.8"/>
      </g>
     </g>
     <g id="text_29">
      <!-- 6500 -->
      <g transform="translate(81 53.553531) scale(0.1 -0.1)">
       <use xlink:href="#SimHei-36"/>
       <use xlink:href="#SimHei-35" x="50"/>
       <use xlink:href="#SimHei-30" x="100"/>
       <use xlink:href="#SimHei-30" x="150"/>
      </g>
     </g>
    </g>
   </g>
   <g id="line2d_30">
    <path d="M 129.312933 52.992366 
L 148.008488 51.581679 
L 166.704043 53.175573 
L 185.399598 54.219847 
L 204.095153 55.850382 
L 222.790708 52.442748 
L 241.486263 49.877863 
L 260.181818 52.845802 
L 278.877373 52.735878 
L 297.572928 52.699237 
L 316.268483 55.81374 
L 334.964038 55.172519 
L 353.659593 52.332824 
L 372.355149 49.309924 
L 391.050704 49.2 
" clip-path="url(#p94b2118184)" style="fill: none; stroke: #ffa500; stroke-width: 1.5; stroke-linecap: square"/>
   </g>
   <g id="patch_18">
    <path d="M 108 169.2 
L 108 43.2 
" style="fill: none; stroke: #000000; stroke-width: 0.8; stroke-linejoin: miter; stroke-linecap: square"/>
   </g>
   <g id="patch_19">
    <path d="M 412.363636 169.2 
L 412.363636 43.2 
" style="fill: none; stroke: #000000; stroke-width: 0.8; stroke-linejoin: miter; stroke-linecap: square"/>
   </g>
   <g id="patch_20">
    <path d="M 108 169.2 
L 412.363636 169.2 
" style="fill: none; stroke: #000000; stroke-width: 0.8; stroke-linejoin: miter; stroke-linecap: square"/>
   </g>
   <g id="patch_21">
    <path d="M 108 43.2 
L 412.363636 43.2 
" style="fill: none; stroke: #000000; stroke-width: 0.8; stroke-linejoin: miter; stroke-linecap: square"/>
   </g>
   <g id="text_30">
    <!-- 平常一周的访问量 -->
    <g transform="translate(180.181818 37.2) scale(0.2 -0.2)">
     <defs>
      <path id="SimHei-5e73" d="M 4525 4825 
Q 4900 4825 5450 4850 
L 5450 4375 
Q 4925 4400 4525 4400 
L 3475 4400 
L 3475 2025 
L 5000 2025 
Q 5550 2025 6025 2050 
L 6025 1575 
Q 5550 1600 5000 1600 
L 3475 1600 
L 3475 450 
Q 3475 -100 3500 -600 
L 2925 -600 
Q 2950 -100 2950 450 
L 2950 1600 
L 1125 1600 
Q 775 1600 375 1575 
L 375 2050 
Q 775 2025 1175 2025 
L 2950 2025 
L 2950 4400 
L 1775 4400 
Q 1400 4400 875 4375 
L 875 4850 
Q 1400 4825 1750 4825 
L 4525 4825 
z
M 3925 2600 
Q 4500 3300 4900 4125 
Q 5150 3950 5400 3825 
Q 4775 2850 4350 2300 
Q 4150 2475 3925 2600 
z
M 1975 2350 
Q 1600 3100 1050 3725 
Q 1250 3875 1450 4050 
Q 2075 3300 2450 2725 
Q 2150 2500 1975 2350 
z
" transform="scale(0.015625)"/>
      <path id="SimHei-5e38" d="M 5000 3225 
Q 4975 2875 4975 2525 
Q 4975 2175 5000 1875 
L 3450 1875 
L 3450 1400 
L 5550 1400 
Q 5525 1125 5525 800 
L 5525 300 
Q 5525 -100 5187 -225 
Q 4850 -350 4350 -375 
Q 4300 -100 4175 150 
Q 4675 100 4875 162 
Q 5075 225 5050 450 
L 5050 1000 
L 3450 1000 
L 3450 50 
Q 3450 -250 3475 -650 
L 2950 -650 
Q 2950 -250 2975 50 
L 2975 1000 
L 1400 1000 
L 1400 -250 
L 900 -250 
Q 925 100 925 600 
Q 925 1125 900 1400 
L 2975 1400 
L 2975 1875 
L 1400 1875 
Q 1425 2225 1425 2550 
Q 1425 2875 1400 3225 
L 5000 3225 
z
M 5175 4825 
Q 4975 4625 4625 4075 
L 5925 4075 
Q 5900 3725 5900 3475 
Q 5900 3250 5925 2875 
L 5425 2875 
L 5425 3675 
L 1000 3675 
L 1000 2850 
L 500 2850 
Q 525 3150 525 3425 
Q 525 3725 500 4075 
L 1750 4075 
Q 1525 4500 1225 4800 
Q 1425 4900 1575 5100 
Q 1850 4800 2175 4375 
Q 2000 4250 1800 4075 
L 2975 4075 
Q 2975 4775 2950 5200 
L 3475 5200 
Q 3450 4775 3450 4075 
L 4150 4075 
Q 4475 4650 4675 5125 
Q 4925 4950 5175 4825 
z
M 4525 2275 
L 4525 2825 
L 1875 2825 
L 1875 2275 
L 4525 2275 
z
" transform="scale(0.015625)"/>
      <path id="SimHei-4e00" d="M 4875 2675 
Q 5525 2675 6050 2700 
L 6050 2050 
Q 5525 2075 4900 2075 
L 1600 2075 
Q 950 2075 350 2050 
L 350 2700 
Q 950 2675 1600 2675 
L 4875 2675 
z
" transform="scale(0.015625)"/>
      <path id="SimHei-5468" d="M 5600 4925 
Q 5575 4400 5575 3800 
L 5575 50 
Q 5550 -375 5325 -462 
Q 5100 -550 4325 -600 
Q 4300 -400 4125 -75 
Q 4800 -100 4962 -37 
Q 5125 25 5100 225 
L 5100 4525 
L 1500 4525 
Q 1500 2575 1450 1887 
Q 1400 1200 1237 550 
Q 1075 -100 775 -625 
Q 625 -450 275 -225 
Q 650 225 825 1000 
Q 1000 1775 1025 2587 
Q 1050 3400 1000 4925 
L 5600 4925 
z
M 2050 325 
Q 2075 625 2075 950 
L 2075 1400 
Q 2075 1625 2050 1925 
L 4400 1925 
Q 4375 1725 4375 1450 
L 4375 875 
Q 4375 600 4400 325 
L 2050 325 
z
M 3000 3800 
Q 3000 4150 2975 4375 
L 3475 4375 
Q 3450 4075 3450 3800 
Q 4100 3800 4475 3825 
L 4475 3350 
Q 4125 3375 3450 3375 
L 3450 2800 
Q 4200 2800 4825 2825 
L 4825 2350 
Q 4175 2375 3725 2375 
L 2750 2375 
Q 2325 2375 1725 2350 
L 1725 2825 
Q 2325 2800 3000 2800 
L 3000 3375 
Q 2500 3375 1975 3350 
L 1975 3825 
Q 2475 3800 3000 3800 
z
M 3900 725 
L 3900 1525 
L 2550 1525 
L 2550 725 
L 3900 725 
z
" transform="scale(0.015625)"/>
      <path id="SimHei-7684" d="M 2100 4975 
Q 1975 4750 1750 3950 
L 2875 3950 
Q 2850 3525 2850 2875 
L 2850 675 
Q 2850 300 2875 -400 
L 2375 -400 
L 2375 100 
L 1100 100 
L 1100 -450 
L 600 -450 
Q 625 350 625 550 
L 625 2850 
Q 625 3525 600 3950 
L 1325 3950 
Q 1450 4525 1525 5150 
Q 1875 5025 2100 4975 
z
M 5825 3075 
Q 5800 1550 5700 175 
Q 5650 -275 5225 -425 
Q 4800 -575 4275 -625 
Q 4250 -350 4050 -50 
Q 4550 -75 4837 -25 
Q 5125 25 5200 200 
Q 5275 375 5312 1225 
Q 5350 2075 5375 3600 
L 3925 3600 
Q 3725 3125 3350 2475 
Q 3175 2650 2925 2750 
Q 3150 3050 3350 3475 
Q 3550 3900 3700 4400 
Q 3850 4900 3875 5175 
Q 4225 5025 4475 4950 
Q 4350 4750 4262 4512 
Q 4175 4275 4075 4050 
L 5850 4050 
Q 5825 3525 5825 3075 
z
M 2375 525 
L 2375 1850 
L 1100 1850 
L 1100 525 
L 2375 525 
z
M 2375 2275 
L 2375 3525 
L 1100 3525 
L 1100 2275 
L 2375 2275 
z
M 4350 2050 
Q 4500 1750 4700 1275 
Q 4525 1200 4225 1025 
Q 4050 1500 3900 1837 
Q 3750 2175 3600 2400 
Q 3775 2500 4050 2650 
L 4350 2050 
z
" transform="scale(0.015625)"/>
      <path id="SimHei-8bbf" d="M 2050 -300 
Q 2550 175 2825 675 
Q 3100 1175 3150 1675 
Q 3200 2175 3200 2650 
L 3200 3600 
Q 2650 3600 2125 3575 
L 2125 4050 
Q 2575 4025 2875 4025 
L 5375 4025 
Q 5650 4025 6075 4050 
L 6075 3575 
Q 5700 3600 5275 3600 
L 3675 3600 
L 3675 2750 
L 5600 2750 
Q 5550 2475 5525 1975 
L 5400 175 
Q 5350 -275 5062 -412 
Q 4775 -550 4200 -575 
Q 4175 -325 4000 -25 
Q 4475 -50 4675 -12 
Q 4875 25 4950 375 
L 5075 2325 
L 3675 2325 
Q 3625 1725 3550 1312 
Q 3475 900 3225 412 
Q 2975 -75 2475 -600 
Q 2225 -375 2050 -300 
z
M 2550 925 
Q 2050 475 1750 200 
Q 1450 -75 1200 -325 
Q 1000 -100 850 50 
Q 1125 275 1100 525 
L 1100 2775 
L 325 2775 
L 325 3250 
Q 625 3225 900 3225 
L 1625 3225 
Q 1600 2750 1600 2250 
L 1600 650 
Q 1825 825 2375 1350 
Q 2400 1125 2550 925 
z
M 1050 5125 
Q 1275 4875 1850 4050 
Q 1675 3925 1425 3750 
Q 1050 4375 650 4850 
Q 900 5000 1050 5125 
z
M 3425 5025 
Q 3675 5125 3850 5275 
Q 4100 4950 4425 4300 
Q 4175 4225 3950 4075 
Q 3800 4475 3425 5025 
z
" transform="scale(0.015625)"/>
      <path id="SimHei-95ee" d="M 4375 3225 
Q 4350 2675 4350 2100 
Q 4350 1525 4375 1050 
L 1900 1050 
Q 1925 1575 1925 2075 
Q 1925 2575 1900 3225 
L 4375 3225 
z
M 5800 4825 
Q 5775 4350 5775 3850 
L 5775 100 
Q 5775 -375 5500 -462 
Q 5225 -550 4725 -625 
Q 4700 -275 4500 -25 
Q 5025 -25 5125 0 
Q 5225 25 5250 225 
L 5250 4400 
L 3800 4400 
Q 3175 4400 2675 4375 
L 2675 4850 
Q 3175 4825 3775 4825 
L 5800 4825 
z
M 1175 3875 
Q 1150 3450 1150 3175 
L 1150 -600 
L 600 -600 
Q 625 -100 625 325 
L 625 3050 
Q 625 3500 600 3875 
L 1175 3875 
z
M 3850 1475 
L 3850 2800 
L 2400 2800 
L 2400 1475 
L 3850 1475 
z
M 1400 5200 
Q 1700 4800 2125 4325 
Q 1950 4200 1675 4000 
Q 1325 4550 975 4875 
Q 1225 5075 1400 5200 
z
" transform="scale(0.015625)"/>
      <path id="SimHei-91cf" d="M 5250 2500 
Q 5225 2200 5225 1700 
Q 5225 1225 5250 950 
L 3425 950 
L 3425 625 
L 4575 625 
Q 5000 625 5375 650 
L 5375 275 
Q 5025 300 4575 300 
L 3425 300 
L 3425 -75 
L 5125 -75 
Q 5525 -75 5925 -50 
L 5925 -425 
Q 5525 -400 5125 -400 
L 1275 -400 
Q 900 -400 475 -425 
L 475 -50 
Q 925 -50 1275 -75 
L 2975 -75 
L 2975 300 
L 1725 300 
Q 1350 300 975 250 
L 975 650 
Q 1375 625 1725 625 
L 2975 625 
L 2975 950 
L 1150 950 
Q 1175 1375 1175 1775 
Q 1175 2175 1150 2500 
L 5250 2500 
z
M 5200 4950 
Q 5175 4575 5175 4250 
Q 5175 3925 5200 3400 
L 1200 3400 
Q 1225 3925 1225 4250 
Q 1225 4575 1200 4950 
L 5200 4950 
z
M 4900 3100 
Q 5500 3125 6000 3150 
L 6000 2750 
Q 5500 2775 4925 2775 
L 1650 2775 
Q 975 2775 325 2750 
L 325 3150 
Q 975 3125 1650 3100 
L 4900 3100 
z
M 4725 3700 
L 4725 4025 
L 1675 4025 
L 1675 3700 
L 4725 3700 
z
M 4725 4350 
L 4725 4650 
L 1675 4650 
L 1675 4350 
L 4725 4350 
z
M 4750 1875 
L 4750 2175 
L 3425 2175 
L 3425 1875 
L 4750 1875 
z
M 2975 1875 
L 2975 2175 
L 1650 2175 
L 1650 1875 
L 2975 1875 
z
M 2975 1275 
L 2975 1550 
L 1650 1550 
L 1650 1275 
L 2975 1275 
z
M 4750 1275 
L 4750 1550 
L 3425 1550 
L 3425 1275 
L 4750 1275 
z
" transform="scale(0.015625)"/>
     </defs>
     <use xlink:href="#SimHei-5e73"/>
     <use xlink:href="#SimHei-5e38" x="100"/>
     <use xlink:href="#SimHei-4e00" x="200"/>
     <use xlink:href="#SimHei-5468" x="300"/>
     <use xlink:href="#SimHei-7684" x="400"/>
     <use xlink:href="#SimHei-8bbf" x="500"/>
     <use xlink:href="#SimHei-95ee" x="600"/>
     <use xlink:href="#SimHei-91cf" x="700"/>
    </g>
   </g>
  </g>
  <g id="axes_2">
   <g id="patch_22">
    <path d="M 473.236364 169.2 
L 777.6 169.2 
L 777.6 43.2 
L 473.236364 43.2 
z
" style="fill: #ffffff"/>
   </g>
   <g id="patch_23">
    <path d="M 487.071074 169.2 
L 519.623335 169.2 
L 519.623335 67.168912 
L 487.071074 67.168912 
z
" clip-path="url(#p3a1c607800)" style="fill: #1f77b4"/>
   </g>
   <g id="patch_24">
    <path d="M 527.7614 169.2 
L 560.313661 169.2 
L 560.313661 67.137824 
L 527.7614 67.137824 
z
" clip-path="url(#p3a1c607800)" style="fill: #1f77b4"/>
   </g>
   <g id="patch_25">
    <path d="M 568.451726 169.2 
L 601.003986 169.2 
L 601.003986 65.801036 
L 568.451726 65.801036 
z
" clip-path="url(#p3a1c607800)" style="fill: #1f77b4"/>
   </g>
   <g id="patch_26">
    <path d="M 609.142052 169.2 
L 641.694312 169.2 
L 641.694312 62.039378 
L 609.142052 62.039378 
z
" clip-path="url(#p3a1c607800)" style="fill: #1f77b4"/>
   </g>
   <g id="patch_27">
    <path d="M 649.832377 169.2 
L 682.384638 169.2 
L 682.384638 49.2 
L 649.832377 49.2 
z
" clip-path="url(#p3a1c607800)" style="fill: #1f77b4"/>
   </g>
   <g id="patch_28">
    <path d="M 690.522703 169.2 
L 723.074964 169.2 
L 723.074964 63.873575 
L 690.522703 63.873575 
z
" clip-path="url(#p3a1c607800)" style="fill: #1f77b4"/>
   </g>
   <g id="patch_29">
    <path d="M 731.213029 169.2 
L 763.765289 169.2 
L 763.765289 65.552332 
L 731.213029 65.552332 
z
" clip-path="url(#p3a1c607800)" style="fill: #1f77b4"/>
   </g>
   <g id="matplotlib.axis_3">
    <g id="xtick_16">
     <g id="line2d_31">
      <g>
       <use xlink:href="#m291c40c463" x="503.347205" y="169.2" style="stroke: #000000; stroke-width: 0.8"/>
      </g>
     </g>
     <g id="text_31">
      <!-- 12-08 (Mon) -->
      <g transform="translate(486.042423 220.256067) rotate(-45) scale(0.1 -0.1)">
       <use xlink:href="#SimHei-31"/>
       <use xlink:href="#SimHei-32" x="50"/>
       <use xlink:href="#SimHei-2d" x="100"/>
       <use xlink:href="#SimHei-30" x="150"/>
       <use xlink:href="#SimHei-38" x="200"/>
       <use xlink:href="#SimHei-20" x="250"/>
       <use xlink:href="#SimHei-28" x="300"/>
       <use xlink:href="#SimHei-4d" x="350"/>
       <use xlink:href="#SimHei-6f" x="400"/>
       <use xlink:href="#SimHei-6e" x="450"/>
       <use xlink:href="#SimHei-29" x="500"/>
      </g>
     </g>
    </g>
    <g id="xtick_17">
     <g id="line2d_32">
      <g>
       <use xlink:href="#m291c40c463" x="544.03753" y="169.2" style="stroke: #000000; stroke-width: 0.8"/>
      </g>
     </g>
     <g id="text_32">
      <!-- 12-09 (Tue) -->
      <g transform="translate(526.732749 220.256067) rotate(-45) scale(0.1 -0.1)">
       <use xlink:href="#SimHei-31"/>
       <use xlink:href="#SimHei-32" x="50"/>
       <use xlink:href="#SimHei-2d" x="100"/>
       <use xlink:href="#SimHei-30" x="150"/>
       <use xlink:href="#SimHei-39" x="200"/>
       <use xlink:href="#SimHei-20" x="250"/>
       <use xlink:href="#SimHei-28" x="300"/>
       <use xlink:href="#SimHei-54" x="350"/>
       <use xlink:href="#SimHei-75" x="400"/>
       <use xlink:href="#SimHei-65" x="450"/>
       <use xlink:href="#SimHei-29" x="500"/>
      </g>
     </g>
    </g>
    <g id="xtick_18">
     <g id="line2d_33">
      <g>
       <use xlink:href="#m291c40c463" x="584.727856" y="169.2" style="stroke: #000000; stroke-width: 0.8"/>
      </g>
     </g>
     <g id="text_33">
      <!-- 12-10 (Wed) -->
      <g transform="translate(567.423075 220.256067) rotate(-45) scale(0.1 -0.1)">
       <use xlink:href="#SimHei-31"/>
       <use xlink:href="#SimHei-32" x="50"/>
       <use xlink:href="#SimHei-2d" x="100"/>
       <use xlink:href="#SimHei-31" x="150"/>
       <use xlink:href="#SimHei-30" x="200"/>
       <use xlink:href="#SimHei-20" x="250"/>
       <use xlink:href="#SimHei-28" x="300"/>
       <use xlink:href="#SimHei-57" x="350"/>
       <use xlink:href="#SimHei-65" x="400"/>
       <use xlink:href="#SimHei-64" x="450"/>
       <use xlink:href="#SimHei-29" x="500"/>
      </g>
     </g>
    </g>
    <g id="xtick_19">
     <g id="line2d_34">
      <g>
       <use xlink:href="#m291c40c463" x="625.418182" y="169.2" style="stroke: #000000; stroke-width: 0.8"/>
      </g>
     </g>
     <g id="text_34">
      <!-- 12-11 (Thu) -->
      <g transform="translate(608.113401 220.256067) rotate(-45) scale(0.1 -0.1)">
       <use xlink:href="#SimHei-31"/>
       <use xlink:href="#SimHei-32" x="50"/>
       <use xlink:href="#SimHei-2d" x="100"/>
       <use xlink:href="#SimHei-31" x="150"/>
       <use xlink:href="#SimHei-31" x="200"/>
       <use xlink:href="#SimHei-20" x="250"/>
       <use xlink:href="#SimHei-28" x="300"/>
       <use xlink:href="#SimHei-54" x="350"/>
       <use xlink:href="#SimHei-68" x="400"/>
       <use xlink:href="#SimHei-75" x="450"/>
       <use xlink:href="#SimHei-29" x="500"/>
      </g>
     </g>
    </g>
    <g id="xtick_20">
     <g id="line2d_35">
      <g>
       <use xlink:href="#m291c40c463" x="666.108508" y="169.2" style="stroke: #000000; stroke-width: 0.8"/>
      </g>
     </g>
     <g id="text_35">
      <!-- 12-12 (Fri) -->
      <g transform="translate(648.803726 220.256067) rotate(-45) scale(0.1 -0.1)">
       <use xlink:href="#SimHei-31"/>
       <use xlink:href="#SimHei-32" x="50"/>
       <use xlink:href="#SimHei-2d" x="100"/>
       <use xlink:href="#SimHei-31" x="150"/>
       <use xlink:href="#SimHei-32" x="200"/>
       <use xlink:href="#SimHei-20" x="250"/>
       <use xlink:href="#SimHei-28" x="300"/>
       <use xlink:href="#SimHei-46" x="350"/>
       <use xlink:href="#SimHei-72" x="400"/>
       <use xlink:href="#SimHei-69" x="450"/>
       <use xlink:href="#SimHei-29" x="500"/>
      </g>
     </g>
    </g>
    <g id="xtick_21">
     <g id="line2d_36">
      <g>
       <use xlink:href="#m291c40c463" x="706.798833" y="169.2" style="stroke: #000000; stroke-width: 0.8"/>
      </g>
     </g>
     <g id="text_36">
      <!-- 12-13 (Sat) -->
      <g transform="translate(689.494052 220.256067) rotate(-45) scale(0.1 -0.1)">
       <use xlink:href="#SimHei-31"/>
       <use xlink:href="#SimHei-32" x="50"/>
       <use xlink:href="#SimHei-2d" x="100"/>
       <use xlink:href="#SimHei-31" x="150"/>
       <use xlink:href="#SimHei-33" x="200"/>
       <use xlink:href="#SimHei-20" x="250"/>
       <use xlink:href="#SimHei-28" x="300"/>
       <use xlink:href="#SimHei-53" x="350"/>
       <use xlink:href="#SimHei-61" x="400"/>
       <use xlink:href="#SimHei-74" x="450"/>
       <use xlink:href="#SimHei-29" x="500"/>
      </g>
     </g>
    </g>
    <g id="xtick_22">
     <g id="line2d_37">
      <g>
       <use xlink:href="#m291c40c463" x="747.489159" y="169.2" style="stroke: #000000; stroke-width: 0.8"/>
      </g>
     </g>
     <g id="text_37">
      <!-- 12-14 (Sun) -->
      <g transform="translate(730.184378 220.256067) rotate(-45) scale(0.1 -0.1)">
       <use xlink:href="#SimHei-31"/>
       <use xlink:href="#SimHei-32" x="50"/>
       <use xlink:href="#SimHei-2d" x="100"/>
       <use xlink:href="#SimHei-31" x="150"/>
       <use xlink:href="#SimHei-34" x="200"/>
       <use xlink:href="#SimHei-20" x="250"/>
       <use xlink:href="#SimHei-28" x="300"/>
       <use xlink:href="#SimHei-53" x="350"/>
       <use xlink:href="#SimHei-75" x="400"/>
       <use xlink:href="#SimHei-6e" x="450"/>
       <use xlink:href="#SimHei-29" x="500"/>
      </g>
     </g>
    </g>
   </g>
   <g id="matplotlib.axis_4">
    <g id="ytick_15">
     <g id="line2d_38">
      <g>
       <use xlink:href="#m44bb410cc1" x="473.236364" y="169.2" style="stroke: #000000; stroke-width: 0.8"/>
      </g>
     </g>
     <g id="text_38">
      <!-- 0 -->
      <g transform="translate(461.236364 172.6375) scale(0.1 -0.1)">
       <use xlink:href="#SimHei-30"/>
      </g>
     </g>
    </g>
    <g id="ytick_16">
     <g id="line2d_39">
      <g>
       <use xlink:href="#m44bb410cc1" x="473.236364" y="161.427979" style="stroke: #000000; stroke-width: 0.8"/>
      </g>
     </g>
     <g id="text_39">
      <!-- 500 -->
      <g transform="translate(451.236364 164.865479) scale(0.1 -0.1)">
       <use xlink:href="#SimHei-35"/>
       <use xlink:href="#SimHei-30" x="50"/>
       <use xlink:href="#SimHei-30" x="100"/>
      </g>
     </g>
    </g>
    <g id="ytick_17">
     <g id="line2d_40">
      <g>
       <use xlink:href="#m44bb410cc1" x="473.236364" y="153.655959" style="stroke: #000000; stroke-width: 0.8"/>
      </g>
     </g>
     <g id="text_40">
      <!-- 1000 -->
      <g transform="translate(446.236364 157.093459) scale(0.1 -0.1)">
       <use xlink:href="#SimHei-31"/>
       <use xlink:href="#SimHei-30" x="50"/>
       <use xlink:href="#SimHei-30" x="100"/>
       <use xlink:href="#SimHei-30" x="150"/>
      </g>
     </g>
    </g>
    <g id="ytick_18">
     <g id="line2d_41">
      <g>
       <use xlink:href="#m44bb410cc1" x="473.236364" y="145.883938" style="stroke: #000000; stroke-width: 0.8"/>
      </g>
     </g>
     <g id="text_41">
      <!-- 1500 -->
      <g transform="translate(446.236364 149.321438) scale(0.1 -0.1)">
       <use xlink:href="#SimHei-31"/>
       <use xlink:href="#SimHei-35" x="50"/>
       <use xlink:href="#SimHei-30" x="100"/>
       <use xlink:href="#SimHei-30" x="150"/>
      </g>
     </g>
    </g>
    <g id="ytick_19">
     <g id="line2d_42">
      <g>
       <use xlink:href="#m44bb410cc1" x="473.236364" y="138.111917" style="stroke: #000000; stroke-width: 0.8"/>
      </g>
     </g>
     <g id="text_42">
      <!-- 2000 -->
      <g transform="translate(446.236364 141.549417) scale(0.1 -0.1)">
       <use xlink:href="#SimHei-32"/>
       <use xlink:href="#SimHei-30" x="50"/>
       <use xlink:href="#SimHei-30" x="100"/>
       <use xlink:href="#SimHei-30" x="150"/>
      </g>
     </g>
    </g>
    <g id="ytick_20">
     <g id="line2d_43">
      <g>
       <use xlink:href="#m44bb410cc1" x="473.236364" y="130.339896" style="stroke: #000000; stroke-width: 0.8"/>
      </g>
     </g>
     <g id="text_43">
      <!-- 2500 -->
      <g transform="translate(446.236364 133.777396) scale(0.1 -0.1)">
       <use xlink:href="#SimHei-32"/>
       <use xlink:href="#SimHei-35" x="50"/>
       <use xlink:href="#SimHei-30" x="100"/>
       <use xlink:href="#SimHei-30" x="150"/>
      </g>
     </g>
    </g>
    <g id="ytick_21">
     <g id="line2d_44">
      <g>
       <use xlink:href="#m44bb410cc1" x="473.236364" y="122.567876" style="stroke: #000000; stroke-width: 0.8"/>
      </g>
     </g>
     <g id="text_44">
      <!-- 3000 -->
      <g transform="translate(446.236364 126.005376) scale(0.1 -0.1)">
       <use xlink:href="#SimHei-33"/>
       <use xlink:href="#SimHei-30" x="50"/>
       <use xlink:href="#SimHei-30" x="100"/>
       <use xlink:href="#SimHei-30" x="150"/>
      </g>
     </g>
    </g>
    <g id="ytick_22">
     <g id="line2d_45">
      <g>
       <use xlink:href="#m44bb410cc1" x="473.236364" y="114.795855" style="stroke: #000000; stroke-width: 0.8"/>
      </g>
     </g>
     <g id="text_45">
      <!-- 3500 -->
      <g transform="translate(446.236364 118.233355) scale(0.1 -0.1)">
       <use xlink:href="#SimHei-33"/>
       <use xlink:href="#SimHei-35" x="50"/>
       <use xlink:href="#SimHei-30" x="100"/>
       <use xlink:href="#SimHei-30" x="150"/>
      </g>
     </g>
    </g>
    <g id="ytick_23">
     <g id="line2d_46">
      <g>
       <use xlink:href="#m44bb410cc1" x="473.236364" y="107.023834" style="stroke: #000000; stroke-width: 0.8"/>
      </g>
     </g>
     <g id="text_46">
      <!-- 4000 -->
      <g transform="translate(446.236364 110.461334) scale(0.1 -0.1)">
       <use xlink:href="#SimHei-34"/>
       <use xlink:href="#SimHei-30" x="50"/>
       <use xlink:href="#SimHei-30" x="100"/>
       <use xlink:href="#SimHei-30" x="150"/>
      </g>
     </g>
    </g>
    <g id="ytick_24">
     <g id="line2d_47">
      <g>
       <use xlink:href="#m44bb410cc1" x="473.236364" y="99.251813" style="stroke: #000000; stroke-width: 0.8"/>
      </g>
     </g>
     <g id="text_47">
      <!-- 4500 -->
      <g transform="translate(446.236364 102.689313) scale(0.1 -0.1)">
       <use xlink:href="#SimHei-34"/>
       <use xlink:href="#SimHei-35" x="50"/>
       <use xlink:href="#SimHei-30" x="100"/>
       <use xlink:href="#SimHei-30" x="150"/>
      </g>
     </g>
    </g>
    <g id="ytick_25">
     <g id="line2d_48">
      <g>
       <use xlink:href="#m44bb410cc1" x="473.236364" y="91.479793" style="stroke: #000000; stroke-width: 0.8"/>
      </g>
     </g>
     <g id="text_48">
      <!-- 5000 -->
      <g transform="translate(446.236364 94.917293) scale(0.1 -0.1)">
       <use xlink:href="#SimHei-35"/>
       <use xlink:href="#SimHei-30" x="50"/>
       <use xlink:href="#SimHei-30" x="100"/>
       <use xlink:href="#SimHei-30" x="150"/>
      </g>
     </g>
    </g>
    <g id="ytick_26">
     <g id="line2d_49">
      <g>
       <use xlink:href="#m44bb410cc1" x="473.236364" y="83.707772" style="stroke: #000000; stroke-width: 0.8"/>
      </g>
     </g>
     <g id="text_49">
      <!-- 5500 -->
      <g transform="translate(446.236364 87.145272) scale(0.1 -0.1)">
       <use xlink:href="#SimHei-35"/>
       <use xlink:href="#SimHei-35" x="50"/>
       <use xlink:href="#SimHei-30" x="100"/>
       <use xlink:href="#SimHei-30" x="150"/>
      </g>
     </g>
    </g>
    <g id="ytick_27">
     <g id="line2d_50">
      <g>
       <use xlink:href="#m44bb410cc1" x="473.236364" y="75.935751" style="stroke: #000000; stroke-width: 0.8"/>
      </g>
     </g>
     <g id="text_50">
      <!-- 6000 -->
      <g transform="translate(446.236364 79.373251) scale(0.1 -0.1)">
       <use xlink:href="#SimHei-36"/>
       <use xlink:href="#SimHei-30" x="50"/>
       <use xlink:href="#SimHei-30" x="100"/>
       <use xlink:href="#SimHei-30" x="150"/>
      </g>
     </g>
    </g>
    <g id="ytick_28">
     <g id="line2d_51">
      <g>
       <use xlink:href="#m44bb410cc1" x="473.236364" y="68.163731" style="stroke: #000000; stroke-width: 0.8"/>
      </g>
     </g>
     <g id="text_51">
      <!-- 6500 -->
      <g transform="translate(446.236364 71.601231) scale(0.1 -0.1)">
       <use xlink:href="#SimHei-36"/>
       <use xlink:href="#SimHei-35" x="50"/>
       <use xlink:href="#SimHei-30" x="100"/>
       <use xlink:href="#SimHei-30" x="150"/>
      </g>
     </g>
    </g>
    <g id="ytick_29">
     <g id="line2d_52">
      <g>
       <use xlink:href="#m44bb410cc1" x="473.236364" y="60.39171" style="stroke: #000000; stroke-width: 0.8"/>
      </g>
     </g>
     <g id="text_52">
      <!-- 7000 -->
      <g transform="translate(446.236364 63.82921) scale(0.1 -0.1)">
       <use xlink:href="#SimHei-37"/>
       <use xlink:href="#SimHei-30" x="50"/>
       <use xlink:href="#SimHei-30" x="100"/>
       <use xlink:href="#SimHei-30" x="150"/>
      </g>
     </g>
    </g>
    <g id="ytick_30">
     <g id="line2d_53">
      <g>
       <use xlink:href="#m44bb410cc1" x="473.236364" y="52.619689" style="stroke: #000000; stroke-width: 0.8"/>
      </g>
     </g>
     <g id="text_53">
      <!-- 7500 -->
      <g transform="translate(446.236364 56.057189) scale(0.1 -0.1)">
       <use xlink:href="#SimHei-37"/>
       <use xlink:href="#SimHei-35" x="50"/>
       <use xlink:href="#SimHei-30" x="100"/>
       <use xlink:href="#SimHei-30" x="150"/>
      </g>
     </g>
    </g>
   </g>
   <g id="line2d_54">
    <path d="M 503.347205 67.168912 
L 544.03753 67.137824 
L 584.727856 65.801036 
L 625.418182 62.039378 
L 666.108508 49.2 
L 706.798833 63.873575 
L 747.489159 65.552332 
" clip-path="url(#p3a1c607800)" style="fill: none; stroke: #ffa500; stroke-width: 1.5; stroke-linecap: square"/>
   </g>
   <g id="patch_30">
    <path d="M 473.236364 169.2 
L 473.236364 43.2 
" style="fill: none; stroke: #000000; stroke-width: 0.8; stroke-linejoin: miter; stroke-linecap: square"/>
   </g>
   <g id="patch_31">
    <path d="M 777.6 169.2 
L 777.6 43.2 
" style="fill: none; stroke: #000000; stroke-width: 0.8; stroke-linejoin: miter; stroke-linecap: square"/>
   </g>
   <g id="patch_32">
    <path d="M 473.236364 169.2 
L 777.6 169.2 
" style="fill: none; stroke: #000000; stroke-width: 0.8; stroke-linejoin: miter; stroke-linecap: square"/>
   </g>
   <g id="patch_33">
    <path d="M 473.236364 43.2 
L 777.6 43.2 
" style="fill: none; stroke: #000000; stroke-width: 0.8; stroke-linejoin: miter; stroke-linecap: square"/>
   </g>
   <g id="text_54">
    <!-- 双十二一周的访问量 -->
    <g transform="translate(535.418182 37.2) scale(0.2 -0.2)">
     <defs>
      <path id="SimHei-53cc" d="M 5675 4775 
Q 5500 3400 5250 2525 
Q 5000 1650 4625 1075 
Q 4925 675 5337 362 
Q 5750 50 6200 -125 
Q 5900 -250 5700 -550 
Q 5425 -375 5037 -62 
Q 4650 250 4300 700 
Q 4050 375 3637 25 
Q 3225 -325 2650 -675 
Q 2475 -425 2225 -325 
Q 2875 0 3337 412 
Q 3800 825 4000 1125 
Q 3650 2000 3525 2587 
Q 3400 3175 3300 4325 
L 3050 4325 
L 3050 4800 
Q 3525 4775 4025 4775 
L 5675 4775 
z
M 2875 4725 
Q 2800 4000 2700 3412 
Q 2600 2825 2350 2100 
Q 3075 1225 3300 850 
Q 3100 725 2875 525 
Q 2525 1075 2125 1575 
Q 1875 1050 1587 612 
Q 1300 175 800 -325 
Q 650 -125 350 -25 
Q 850 400 1187 862 
Q 1525 1325 1750 1925 
Q 1400 2400 550 3275 
Q 750 3450 900 3625 
Q 1575 2925 1950 2450 
Q 2075 2750 2175 3225 
Q 2275 3700 2300 4275 
L 1400 4275 
Q 850 4275 475 4250 
L 475 4750 
Q 875 4725 1375 4725 
L 2875 4725 
z
M 3775 4325 
Q 3850 3325 3950 2825 
Q 4050 2325 4350 1600 
Q 4625 2125 4825 2825 
Q 5025 3525 5100 4325 
L 3775 4325 
z
" transform="scale(0.015625)"/>
      <path id="SimHei-5341" d="M 2925 2875 
L 2925 4275 
Q 2925 4750 2900 5125 
L 3500 5125 
Q 3475 4750 3475 4300 
L 3475 2875 
L 5150 2875 
Q 5550 2875 6100 2900 
L 6100 2400 
Q 5575 2425 5150 2425 
L 3475 2425 
L 3475 675 
Q 3475 175 3500 -500 
L 2900 -500 
Q 2925 175 2925 700 
L 2925 2425 
L 1275 2425 
Q 875 2425 325 2400 
L 325 2900 
Q 875 2875 1300 2875 
L 2925 2875 
z
" transform="scale(0.015625)"/>
      <path id="SimHei-4e8c" d="M 5050 625 
Q 5650 625 6025 675 
L 6025 50 
Q 5625 75 5050 75 
L 1425 75 
Q 775 75 350 50 
L 350 650 
Q 800 625 1400 625 
L 5050 625 
z
M 4350 4150 
Q 4900 4175 5350 4200 
L 5350 3575 
Q 4900 3600 4375 3600 
L 2050 3600 
Q 1450 3600 1000 3575 
L 1000 4175 
Q 1450 4150 2025 4150 
L 4350 4150 
z
" transform="scale(0.015625)"/>
     </defs>
     <use xlink:href="#SimHei-53cc"/>
     <use xlink:href="#SimHei-5341" x="100"/>
     <use xlink:href="#SimHei-4e8c" x="200"/>
     <use xlink:href="#SimHei-4e00" x="300"/>
     <use xlink:href="#SimHei-5468" x="400"/>
     <use xlink:href="#SimHei-7684" x="500"/>
     <use xlink:href="#SimHei-8bbf" x="600"/>
     <use xlink:href="#SimHei-95ee" x="700"/>
     <use xlink:href="#SimHei-91cf" x="800"/>
    </g>
   </g>
  </g>
 </g>
 <defs>
  <clipPath id="p94b2118184">
   <rect x="108" y="43.2" width="304.363636" height="126"/>
  </clipPath>
  <clipPath id="p3a1c607800">
   <rect x="473.236364" y="43.2" width="304.363636" height="126"/>
  </clipPath>
 </defs>
</svg>
