<?xml version="1.0" encoding="utf-8" standalone="no"?>
<!DOCTYPE svg PUBLIC "-//W3C//DTD SVG 1.1//EN"
  "http://www.w3.org/Graphics/SVG/1.1/DTD/svg11.dtd">
<svg xmlns:xlink="http://www.w3.org/1999/xlink" width="1152pt" height="648pt" viewBox="0 0 1152 648" xmlns="http://www.w3.org/2000/svg" version="1.1">
 <metadata>
  <rdf:RDF xmlns:dc="http://purl.org/dc/elements/1.1/" xmlns:cc="http://creativecommons.org/ns#" xmlns:rdf="http://www.w3.org/1999/02/22-rdf-syntax-ns#">
   <cc:Work>
    <dc:type rdf:resource="http://purl.org/dc/dcmitype/StillImage"/>
    <dc:date>2023-08-03T13:14:36.744867</dc:date>
    <dc:format>image/svg+xml</dc:format>
    <dc:creator>
     <cc:Agent>
      <dc:title>Matplotlib v3.7.0, https://matplotlib.org/</dc:title>
     </cc:Agent>
    </dc:creator>
   </cc:Work>
  </rdf:RDF>
 </metadata>
 <defs>
  <style type="text/css">*{stroke-linejoin: round; stroke-linecap: butt}</style>
 </defs>
 <g id="figure_1">
  <g id="patch_1">
   <path d="M 0 648 
L 1152 648 
L 1152 0 
L 0 0 
z
" style="fill: #f4f4f4"/>
  </g>
  <g id="axes_1">
   <g id="patch_2">
    <path d="M 144 554.04 
L 573.567249 554.04 
L 573.567249 436.44 
L 144 436.44 
z
" clip-path="url(#pff8359292e)" style="fill: #5c1d1d"/>
   </g>
   <g id="patch_3">
    <path d="M 144 386.04 
L 590.716208 386.04 
L 590.716208 268.44 
L 144 268.44 
z
" clip-path="url(#pff8359292e)" style="fill: #892c2c"/>
   </g>
   <g id="patch_4">
    <path d="M 144 218.04 
L 994.285714 218.04 
L 994.285714 100.44 
L 144 100.44 
z
" clip-path="url(#pff8359292e)" style="fill: #994a4a"/>
   </g>
   <g id="patch_5">
    <path d="M 144 554.04 
L 564.718465 554.04 
L 564.718465 436.44 
L 144 436.44 
z
" clip-path="url(#pff8359292e)" style="fill: #f4f4f4"/>
   </g>
   <g id="patch_6">
    <path d="M 144 386.04 
L 547.569507 386.04 
L 547.569507 268.44 
L 144 268.44 
z
" clip-path="url(#pff8359292e)" style="fill: #f4f4f4"/>
   </g>
   <g id="patch_7">
    <path d="M 144 218.04 
L 144 218.04 
L 144 100.44 
L 144 100.44 
z
" clip-path="url(#pff8359292e)" style="fill: #f4f4f4"/>
   </g>
   <g id="PatchCollection_1">
    <path d="M 547.569507 268.44 
L 590.716208 268.44 
L 994.285714 218.04 
L 144 218.04 
z
" clip-path="url(#pff8359292e)" style="fill: #e2b0b0; fill-opacity: 0.8"/>
    <path d="M 564.718465 436.44 
L 573.567249 436.44 
L 590.716208 386.04 
L 547.569507 386.04 
z
" clip-path="url(#pff8359292e)" style="fill: #e2b0b0; fill-opacity: 0.8"/>
   </g>
   <g id="text_1">
    <!-- BUY -->
    <g style="opacity: 0.8" transform="translate(120 495.24) scale(0.16 -0.16)">
     <defs>
      <path id="SimHei-42" d="M 2950 1400 
Q 2950 675 2550 400 
Q 2150 125 1525 125 
L 275 125 
L 275 4400 
L 1575 4400 
Q 2200 4400 2512 4075 
Q 2825 3750 2825 3300 
Q 2825 2850 2612 2637 
Q 2400 2425 2175 2350 
Q 2475 2275 2712 2037 
Q 2950 1800 2950 1400 
z
M 2250 3300 
Q 2250 3625 2062 3775 
Q 1875 3925 1600 3925 
L 850 3925 
L 850 2600 
L 1575 2600 
Q 1850 2600 2050 2762 
Q 2250 2925 2250 3300 
z
M 2350 1400 
Q 2350 1800 2087 1962 
Q 1825 2125 1500 2125 
L 850 2125 
L 850 600 
L 1425 600 
Q 1875 600 2112 775 
Q 2350 950 2350 1400 
z
" transform="scale(0.015625)"/>
      <path id="SimHei-55" d="M 2875 1375 
Q 2875 775 2562 425 
Q 2250 75 1575 75 
Q 900 75 587 425 
Q 275 775 275 1375 
L 275 4400 
L 850 4400 
L 850 1375 
Q 850 950 1050 750 
Q 1250 550 1575 550 
Q 1900 550 2100 750 
Q 2300 950 2300 1375 
L 2300 4400 
L 2875 4400 
L 2875 1375 
z
" transform="scale(0.015625)"/>
      <path id="SimHei-59" d="M 3025 4400 
L 1850 2050 
L 1850 125 
L 1275 125 
L 1275 2050 
L 100 4400 
L 675 4400 
L 1550 2575 
L 1575 2575 
L 2450 4400 
L 3025 4400 
z
" transform="scale(0.015625)"/>
     </defs>
     <use xlink:href="#SimHei-42"/>
     <use xlink:href="#SimHei-55" x="50"/>
     <use xlink:href="#SimHei-59" x="100"/>
    </g>
   </g>
   <g id="text_2">
    <!-- 120205(1.0%) -->
    <g style="opacity: 0.8" transform="translate(515.142857 495.24) scale(0.18 -0.18)">
     <defs>
      <path id="SimHei-31" d="M 1400 3600 
Q 1075 3275 575 2975 
L 575 3450 
Q 1200 3875 1600 4450 
L 1900 4450 
L 1900 150 
L 1400 150 
L 1400 3600 
z
" transform="scale(0.015625)"/>
      <path id="SimHei-32" d="M 300 250 
Q 325 625 650 925 
Q 975 1225 1475 1862 
Q 1975 2500 2125 2850 
Q 2275 3200 2237 3450 
Q 2200 3700 2000 3862 
Q 1800 4025 1537 4000 
Q 1275 3975 1037 3800 
Q 800 3625 675 3275 
L 200 3350 
Q 400 3925 712 4187 
Q 1025 4450 1450 4475 
Q 1700 4500 1900 4462 
Q 2100 4425 2312 4287 
Q 2525 4150 2662 3875 
Q 2800 3600 2762 3212 
Q 2725 2825 2375 2287 
Q 2025 1750 1025 600 
L 2825 600 
L 2825 150 
L 300 150 
L 300 250 
z
" transform="scale(0.015625)"/>
      <path id="SimHei-30" d="M 225 2537 
Q 250 3200 412 3587 
Q 575 3975 875 4225 
Q 1175 4475 1612 4475 
Q 2050 4475 2375 4112 
Q 2700 3750 2800 3200 
Q 2900 2650 2862 1937 
Q 2825 1225 2612 775 
Q 2400 325 1975 150 
Q 1550 -25 1125 187 
Q 700 400 525 750 
Q 350 1100 275 1487 
Q 200 1875 225 2537 
z
M 750 2687 
Q 675 2000 800 1462 
Q 925 925 1212 700 
Q 1500 475 1800 612 
Q 2100 750 2237 1162 
Q 2375 1575 2375 2062 
Q 2375 2550 2337 2950 
Q 2300 3350 2112 3675 
Q 1925 4000 1612 4012 
Q 1300 4025 1062 3700 
Q 825 3375 750 2687 
z
" transform="scale(0.015625)"/>
      <path id="SimHei-35" d="M 550 1325 
Q 725 650 1150 575 
Q 1575 500 1837 662 
Q 2100 825 2212 1087 
Q 2325 1350 2312 1675 
Q 2300 2000 2137 2225 
Q 1975 2450 1725 2525 
Q 1475 2600 1162 2525 
Q 850 2450 650 2175 
L 225 2225 
Q 275 2375 700 4375 
L 2675 4375 
L 2675 3925 
L 1075 3925 
Q 950 3250 825 2850 
Q 1200 3025 1525 3012 
Q 1850 3000 2150 2862 
Q 2450 2725 2587 2487 
Q 2725 2250 2787 2012 
Q 2850 1775 2837 1500 
Q 2825 1225 2725 937 
Q 2625 650 2425 462 
Q 2225 275 1937 162 
Q 1650 50 1275 75 
Q 900 100 562 350 
Q 225 600 100 1200 
L 550 1325 
z
" transform="scale(0.015625)"/>
      <path id="SimHei-28" d="M 2975 -200 
L 2700 -475 
Q 2075 125 1762 775 
Q 1450 1425 1450 2250 
Q 1450 3075 1762 3725 
Q 2075 4375 2700 5000 
L 2975 4725 
Q 2400 4175 2112 3587 
Q 1825 3000 1825 2250 
Q 1825 1500 2112 912 
Q 2400 325 2975 -200 
z
" transform="scale(0.015625)"/>
      <path id="SimHei-2e" d="M 1075 125 
L 500 125 
L 500 675 
L 1075 675 
L 1075 125 
z
" transform="scale(0.015625)"/>
      <path id="SimHei-25" d="M 1400 3325 
Q 1400 2600 1187 2400 
Q 975 2200 775 2200 
Q 575 2200 362 2400 
Q 150 2600 150 3325 
Q 150 4050 362 4250 
Q 575 4450 775 4450 
Q 975 4450 1187 4250 
Q 1400 4050 1400 3325 
z
M 2625 4375 
L 700 75 
L 500 150 
L 2425 4450 
L 2625 4375 
z
M 2975 1200 
Q 2975 475 2762 275 
Q 2550 75 2350 75 
Q 2150 75 1937 275 
Q 1725 475 1725 1200 
Q 1725 1925 1937 2125 
Q 2150 2325 2350 2325 
Q 2550 2325 2762 2125 
Q 2975 1925 2975 1200 
z
M 1000 3325 
Q 1000 3775 950 3925 
Q 900 4075 775 4075 
Q 650 4075 600 3925 
Q 550 3775 550 3325 
Q 550 2875 600 2725 
Q 650 2575 775 2575 
Q 900 2575 950 2725 
Q 1000 2875 1000 3325 
z
M 2575 1200 
Q 2575 1650 2525 1800 
Q 2475 1950 2350 1950 
Q 2225 1950 2175 1800 
Q 2125 1650 2125 1200 
Q 2125 750 2175 600 
Q 2225 450 2350 450 
Q 2475 450 2525 600 
Q 2575 750 2575 1200 
z
" transform="scale(0.015625)"/>
      <path id="SimHei-29" d="M 1675 2250 
Q 1675 1425 1362 775 
Q 1050 125 425 -475 
L 150 -200 
Q 725 325 1012 912 
Q 1300 1500 1300 2250 
Q 1300 3000 1012 3587 
Q 725 4175 150 4725 
L 425 5000 
Q 1050 4375 1362 3725 
Q 1675 3075 1675 2250 
z
" transform="scale(0.015625)"/>
     </defs>
     <use xlink:href="#SimHei-31"/>
     <use xlink:href="#SimHei-32" x="50"/>
     <use xlink:href="#SimHei-30" x="100"/>
     <use xlink:href="#SimHei-32" x="150"/>
     <use xlink:href="#SimHei-30" x="200"/>
     <use xlink:href="#SimHei-35" x="250"/>
     <use xlink:href="#SimHei-28" x="300"/>
     <use xlink:href="#SimHei-31" x="350"/>
     <use xlink:href="#SimHei-2e" x="400"/>
     <use xlink:href="#SimHei-30" x="450"/>
     <use xlink:href="#SimHei-25" x="500"/>
     <use xlink:href="#SimHei-29" x="550"/>
    </g>
   </g>
   <g id="text_3">
    <!-- 5.0% -->
    <g style="opacity: 0.8" transform="translate(553.142857 243.24) scale(0.16 -0.16)">
     <use xlink:href="#SimHei-35"/>
     <use xlink:href="#SimHei-2e" x="50"/>
     <use xlink:href="#SimHei-30" x="100"/>
     <use xlink:href="#SimHei-25" x="150"/>
    </g>
   </g>
   <g id="text_4">
    <!-- FAV+CART -->
    <g style="opacity: 0.8" transform="translate(80 327.24) scale(0.16 -0.16)">
     <defs>
      <path id="SimHei-46" d="M 2925 3925 
L 875 3925 
L 875 2525 
L 2425 2525 
L 2425 2050 
L 875 2050 
L 875 125 
L 300 125 
L 300 4400 
L 2925 4400 
L 2925 3925 
z
" transform="scale(0.015625)"/>
      <path id="SimHei-41" d="M 3075 125 
L 2475 125 
L 2125 1450 
L 1025 1450 
L 675 125 
L 75 125 
L 1325 4450 
L 1825 4450 
L 3075 125 
z
M 2000 1925 
L 1600 3450 
L 1550 3450 
L 1150 1925 
L 2000 1925 
z
" transform="scale(0.015625)"/>
      <path id="SimHei-56" d="M 3050 4400 
L 1800 75 
L 1300 75 
L 50 4400 
L 650 4400 
L 1525 1125 
L 1575 1125 
L 2450 4400 
L 3050 4400 
z
" transform="scale(0.015625)"/>
      <path id="SimHei-2b" d="M 3000 2125 
L 1775 2125 
L 1775 900 
L 1350 900 
L 1350 2125 
L 125 2125 
L 125 2525 
L 1350 2525 
L 1350 3750 
L 1775 3750 
L 1775 2525 
L 3000 2525 
L 3000 2125 
z
" transform="scale(0.015625)"/>
      <path id="SimHei-43" d="M 2975 1825 
Q 2950 875 2575 475 
Q 2200 75 1675 75 
Q 1075 75 650 562 
Q 225 1050 225 2125 
Q 225 3300 637 3875 
Q 1050 4450 1700 4450 
Q 2250 4450 2612 4037 
Q 2975 3625 2950 2875 
L 2400 2875 
Q 2400 3425 2225 3700 
Q 2050 3975 1700 3975 
Q 1300 3975 1062 3562 
Q 825 3150 825 2175 
Q 825 1275 1062 912 
Q 1300 550 1675 550 
Q 1950 550 2175 812 
Q 2400 1075 2400 1825 
L 2975 1825 
z
" transform="scale(0.015625)"/>
      <path id="SimHei-52" d="M 3000 125 
L 2400 125 
L 1500 1975 
L 850 1975 
L 850 125 
L 275 125 
L 275 4400 
L 1525 4400 
Q 2125 4400 2500 4112 
Q 2875 3825 2875 3175 
Q 2875 2675 2625 2400 
Q 2375 2125 2050 2050 
L 3000 125 
z
M 2300 3175 
Q 2300 3525 2087 3725 
Q 1875 3925 1400 3925 
L 850 3925 
L 850 2450 
L 1550 2450 
Q 1850 2450 2075 2612 
Q 2300 2775 2300 3175 
z
" transform="scale(0.015625)"/>
      <path id="SimHei-54" d="M 2850 3925 
L 1850 3925 
L 1850 125 
L 1275 125 
L 1275 3925 
L 275 3925 
L 275 4400 
L 2850 4400 
L 2850 3925 
z
" transform="scale(0.015625)"/>
     </defs>
     <use xlink:href="#SimHei-46"/>
     <use xlink:href="#SimHei-41" x="50"/>
     <use xlink:href="#SimHei-56" x="100"/>
     <use xlink:href="#SimHei-2b" x="150"/>
     <use xlink:href="#SimHei-43" x="200"/>
     <use xlink:href="#SimHei-41" x="250"/>
     <use xlink:href="#SimHei-52" x="300"/>
     <use xlink:href="#SimHei-54" x="350"/>
    </g>
   </g>
   <g id="text_5">
    <!-- 586120(5.1%) -->
    <g style="opacity: 0.8" transform="translate(515.142857 327.24) scale(0.18 -0.18)">
     <defs>
      <path id="SimHei-38" d="M 175 1375 
Q 175 1675 325 1962 
Q 475 2250 825 2425 
Q 525 2600 425 2812 
Q 325 3025 312 3300 
Q 300 3575 387 3775 
Q 475 3975 650 4150 
Q 825 4325 1037 4387 
Q 1250 4450 1500 4450 
Q 1750 4450 1950 4400 
Q 2150 4350 2375 4187 
Q 2600 4025 2700 3725 
Q 2800 3425 2687 3025 
Q 2575 2625 2100 2400 
Q 2525 2275 2700 2012 
Q 2875 1750 2875 1375 
Q 2875 1000 2762 775 
Q 2650 550 2512 400 
Q 2375 250 2137 162 
Q 1900 75 1537 75 
Q 1175 75 912 162 
Q 650 250 475 425 
Q 300 600 237 837 
Q 175 1075 175 1375 
z
M 687 1400 
Q 675 1100 787 875 
Q 900 650 1200 587 
Q 1500 525 1825 600 
Q 2150 675 2275 950 
Q 2400 1225 2362 1500 
Q 2325 1775 2050 1962 
Q 1775 2150 1450 2125 
Q 1125 2100 912 1900 
Q 700 1700 687 1400 
z
M 775 3350 
Q 775 3100 950 2875 
Q 1125 2650 1500 2650 
Q 1875 2650 2062 2875 
Q 2250 3100 2237 3412 
Q 2225 3725 2012 3875 
Q 1800 4025 1437 4000 
Q 1075 3975 925 3787 
Q 775 3600 775 3350 
z
" transform="scale(0.015625)"/>
      <path id="SimHei-36" d="M 250 1612 
Q 275 1975 387 2225 
Q 500 2475 725 2850 
L 1750 4450 
L 2325 4450 
L 1275 2800 
Q 1950 2975 2350 2750 
Q 2750 2525 2887 2237 
Q 3025 1950 3037 1612 
Q 3050 1275 2937 950 
Q 2825 625 2537 362 
Q 2250 100 1737 75 
Q 1225 50 862 262 
Q 500 475 362 862 
Q 225 1250 250 1612 
z
M 1025 787 
Q 1250 550 1625 525 
Q 2000 500 2250 775 
Q 2500 1050 2500 1575 
Q 2500 2100 2187 2300 
Q 1875 2500 1487 2450 
Q 1100 2400 925 2075 
Q 750 1750 775 1387 
Q 800 1025 1025 787 
z
" transform="scale(0.015625)"/>
     </defs>
     <use xlink:href="#SimHei-35"/>
     <use xlink:href="#SimHei-38" x="50"/>
     <use xlink:href="#SimHei-36" x="100"/>
     <use xlink:href="#SimHei-31" x="150"/>
     <use xlink:href="#SimHei-32" x="200"/>
     <use xlink:href="#SimHei-30" x="250"/>
     <use xlink:href="#SimHei-28" x="300"/>
     <use xlink:href="#SimHei-35" x="350"/>
     <use xlink:href="#SimHei-2e" x="400"/>
     <use xlink:href="#SimHei-31" x="450"/>
     <use xlink:href="#SimHei-25" x="500"/>
     <use xlink:href="#SimHei-29" x="550"/>
    </g>
   </g>
   <g id="text_6">
    <!-- 21.0% -->
    <g style="opacity: 0.8" transform="translate(549.142857 411.24) scale(0.16 -0.16)">
     <use xlink:href="#SimHei-32"/>
     <use xlink:href="#SimHei-31" x="50"/>
     <use xlink:href="#SimHei-2e" x="100"/>
     <use xlink:href="#SimHei-30" x="150"/>
     <use xlink:href="#SimHei-25" x="200"/>
    </g>
   </g>
   <g id="text_7">
    <!-- PV -->
    <g style="opacity: 0.8" transform="translate(128 159.24) scale(0.16 -0.16)">
     <defs>
      <path id="SimHei-50" d="M 2950 3100 
Q 2950 2500 2600 2150 
Q 2250 1800 1625 1800 
L 900 1800 
L 900 125 
L 325 125 
L 325 4400 
L 1625 4400 
Q 2250 4400 2600 4050 
Q 2950 3700 2950 3100 
z
M 2375 3100 
Q 2375 3575 2150 3750 
Q 1925 3925 1475 3925 
L 900 3925 
L 900 2275 
L 1475 2275 
Q 1925 2275 2150 2450 
Q 2375 2625 2375 3100 
z
" transform="scale(0.015625)"/>
     </defs>
     <use xlink:href="#SimHei-50"/>
     <use xlink:href="#SimHei-56" x="50"/>
    </g>
   </g>
   <g id="text_8">
    <!-- 11550581(100.0%) -->
    <g style="opacity: 0.8" transform="translate(497.142857 159.24) scale(0.18 -0.18)">
     <use xlink:href="#SimHei-31"/>
     <use xlink:href="#SimHei-31" x="50"/>
     <use xlink:href="#SimHei-35" x="100"/>
     <use xlink:href="#SimHei-35" x="150"/>
     <use xlink:href="#SimHei-30" x="200"/>
     <use xlink:href="#SimHei-35" x="250"/>
     <use xlink:href="#SimHei-38" x="300"/>
     <use xlink:href="#SimHei-31" x="350"/>
     <use xlink:href="#SimHei-28" x="400"/>
     <use xlink:href="#SimHei-31" x="450"/>
     <use xlink:href="#SimHei-30" x="500"/>
     <use xlink:href="#SimHei-30" x="550"/>
     <use xlink:href="#SimHei-2e" x="600"/>
     <use xlink:href="#SimHei-30" x="650"/>
     <use xlink:href="#SimHei-25" x="700"/>
     <use xlink:href="#SimHei-29" x="750"/>
    </g>
   </g>
   <g id="text_9">
    <!-- 流量转化漏斗 -->
    <g transform="translate(536.4 71.76) scale(0.18 -0.18)">
     <defs>
      <path id="SimHei-6d41" d="M 3725 5250 
Q 3975 4875 4225 4450 
L 5025 4450 
Q 5425 4450 5925 4475 
L 5925 4025 
Q 5325 4050 5025 4050 
L 3425 4050 
Q 3625 3900 3775 3825 
Q 3650 3725 3450 3475 
Q 3250 3225 2850 2775 
Q 3750 2800 4775 2850 
Q 4525 3150 4275 3375 
Q 4525 3550 4625 3675 
Q 5325 2950 5800 2375 
Q 5575 2200 5400 2050 
Q 5200 2325 5050 2525 
Q 4500 2475 3562 2412 
Q 2625 2350 2300 2250 
Q 2225 2475 2075 2675 
Q 2325 2750 2675 3175 
Q 3025 3600 3250 4050 
L 2975 4050 
Q 2525 4050 2050 4000 
L 2050 4475 
Q 2525 4450 2975 4450 
L 3675 4450 
Q 3475 4800 3325 5000 
Q 3575 5125 3725 5250 
z
M 5025 2025 
Q 5000 1700 5000 1375 
L 5000 150 
Q 5000 -75 5225 -75 
L 5475 -75 
Q 5675 -75 5700 500 
Q 5900 350 6200 275 
Q 6050 -350 5887 -425 
Q 5725 -500 5500 -500 
L 5025 -500 
Q 4550 -500 4550 -25 
L 4550 1425 
Q 4550 1725 4525 2025 
L 5025 2025 
z
M 3125 1975 
Q 3075 1725 3037 1212 
Q 3000 700 2812 225 
Q 2625 -250 1950 -700 
Q 1775 -475 1575 -325 
Q 2075 -100 2312 287 
Q 2550 675 2575 1162 
Q 2600 1650 2575 2025 
Q 2825 1975 3125 1975 
z
M 4000 2025 
Q 3975 1875 3975 1400 
L 3975 300 
Q 3975 -25 4000 -500 
L 3475 -500 
Q 3500 -50 3500 300 
L 3500 1400 
Q 3500 1825 3475 2025 
L 4000 2025 
z
M 1900 1625 
Q 1650 1200 1350 562 
Q 1050 -75 850 -425 
Q 625 -250 325 -125 
Q 575 175 900 750 
Q 1225 1325 1450 1950 
Q 1650 1775 1900 1625 
z
M 625 3450 
Q 1200 3100 1725 2725 
Q 1525 2525 1375 2275 
Q 925 2700 325 3000 
Q 475 3200 625 3450 
z
M 925 4975 
Q 1500 4625 1900 4300 
Q 1725 4075 1550 3875 
Q 1150 4275 625 4575 
Q 800 4800 925 4975 
z
" transform="scale(0.015625)"/>
      <path id="SimHei-91cf" d="M 5250 2500 
Q 5225 2200 5225 1700 
Q 5225 1225 5250 950 
L 3425 950 
L 3425 625 
L 4575 625 
Q 5000 625 5375 650 
L 5375 275 
Q 5025 300 4575 300 
L 3425 300 
L 3425 -75 
L 5125 -75 
Q 5525 -75 5925 -50 
L 5925 -425 
Q 5525 -400 5125 -400 
L 1275 -400 
Q 900 -400 475 -425 
L 475 -50 
Q 925 -50 1275 -75 
L 2975 -75 
L 2975 300 
L 1725 300 
Q 1350 300 975 250 
L 975 650 
Q 1375 625 1725 625 
L 2975 625 
L 2975 950 
L 1150 950 
Q 1175 1375 1175 1775 
Q 1175 2175 1150 2500 
L 5250 2500 
z
M 5200 4950 
Q 5175 4575 5175 4250 
Q 5175 3925 5200 3400 
L 1200 3400 
Q 1225 3925 1225 4250 
Q 1225 4575 1200 4950 
L 5200 4950 
z
M 4900 3100 
Q 5500 3125 6000 3150 
L 6000 2750 
Q 5500 2775 4925 2775 
L 1650 2775 
Q 975 2775 325 2750 
L 325 3150 
Q 975 3125 1650 3100 
L 4900 3100 
z
M 4725 3700 
L 4725 4025 
L 1675 4025 
L 1675 3700 
L 4725 3700 
z
M 4725 4350 
L 4725 4650 
L 1675 4650 
L 1675 4350 
L 4725 4350 
z
M 4750 1875 
L 4750 2175 
L 3425 2175 
L 3425 1875 
L 4750 1875 
z
M 2975 1875 
L 2975 2175 
L 1650 2175 
L 1650 1875 
L 2975 1875 
z
M 2975 1275 
L 2975 1550 
L 1650 1550 
L 1650 1275 
L 2975 1275 
z
M 4750 1275 
L 4750 1550 
L 3425 1550 
L 3425 1275 
L 4750 1275 
z
" transform="scale(0.015625)"/>
      <path id="SimHei-8f6c" d="M 4975 -675 
Q 4550 -325 4000 37 
Q 3450 400 3025 575 
Q 3175 750 3300 950 
Q 3575 800 4100 500 
Q 4600 1100 5000 1600 
L 3225 1600 
L 3525 2650 
L 3400 2650 
Q 3100 2650 2725 2625 
L 2725 3075 
Q 3050 3050 3350 3050 
L 3625 3050 
L 3800 3825 
L 3575 3825 
Q 3125 3825 2900 3800 
L 2900 4250 
Q 3275 4200 3500 4200 
L 3850 4200 
Q 3950 4775 3975 5175 
L 4575 5075 
Q 4450 4875 4412 4700 
Q 4375 4525 4300 4200 
L 5200 4200 
Q 5525 4200 5825 4225 
L 5825 3800 
Q 5400 3825 5125 3825 
L 4250 3825 
L 4075 3050 
L 5125 3050 
Q 5525 3050 6025 3075 
L 6025 2625 
Q 5550 2650 5075 2650 
L 3975 2650 
L 3800 1950 
L 5700 1950 
L 5700 1550 
Q 5525 1450 5237 1150 
Q 4950 850 4500 250 
Q 4925 -25 5275 -275 
L 4975 -675 
z
M 2025 1300 
Q 2350 1350 2725 1400 
L 2725 975 
Q 2500 950 2025 875 
Q 2025 -125 2050 -575 
L 1550 -575 
Q 1575 200 1575 775 
Q 575 625 300 550 
Q 250 825 200 1075 
Q 550 1100 1575 1200 
L 1575 2050 
Q 775 2050 425 1950 
L 250 2450 
Q 475 2625 662 3025 
Q 850 3425 975 3850 
Q 725 3850 275 3825 
L 275 4275 
Q 675 4250 1075 4250 
Q 1250 4775 1300 5175 
Q 1725 5050 1875 5000 
Q 1725 4750 1525 4250 
L 2600 4250 
L 2600 3825 
Q 2200 3850 1925 3850 
L 1425 3850 
Q 1300 3475 850 2450 
L 1575 2450 
Q 1575 3000 1550 3350 
L 2050 3350 
Q 2025 3050 2025 2450 
Q 2350 2450 2650 2475 
L 2650 2025 
Q 2375 2050 2025 2050 
L 2025 1300 
z
" transform="scale(0.015625)"/>
      <path id="SimHei-5316" d="M 3925 5025 
Q 3900 4900 3900 4400 
L 3900 2625 
Q 4375 3025 4775 3450 
Q 5175 3875 5400 4300 
Q 5600 4100 5900 3925 
Q 5700 3700 5225 3212 
Q 4750 2725 4487 2512 
Q 4225 2300 3900 2025 
L 3900 450 
Q 3900 50 4225 50 
L 5200 50 
Q 5400 75 5462 262 
Q 5525 450 5575 850 
Q 5800 650 6150 600 
Q 6000 -100 5825 -250 
Q 5650 -400 5350 -400 
L 3950 -400 
Q 3425 -400 3400 200 
L 3400 1675 
Q 3225 1525 2962 1350 
Q 2700 1175 2375 975 
Q 2225 1225 2025 1400 
Q 2350 1550 2737 1787 
Q 3125 2025 3400 2250 
L 3400 4500 
Q 3400 4800 3375 5025 
L 3925 5025 
z
M 2400 4850 
Q 2175 4550 2075 4337 
Q 1975 4125 1825 3775 
L 1825 675 
Q 1825 -75 1850 -550 
L 1325 -550 
Q 1350 -125 1350 650 
L 1350 3050 
Q 1125 2725 962 2525 
Q 800 2325 675 2175 
Q 500 2375 275 2525 
Q 625 2850 875 3212 
Q 1125 3575 1312 3912 
Q 1500 4250 1625 4575 
Q 1750 4900 1825 5100 
Q 1975 4975 2400 4850 
z
" transform="scale(0.015625)"/>
      <path id="SimHei-6f0f" d="M 2475 3750 
Q 2475 2625 2425 1925 
Q 2375 1225 2287 750 
Q 2200 275 2087 0 
Q 1975 -275 1800 -675 
Q 1550 -425 1250 -300 
Q 1550 25 1712 475 
Q 1875 925 1925 1437 
Q 1975 1950 2000 2562 
Q 2025 3175 2025 3600 
Q 2025 4050 2012 4287 
Q 2000 4525 1975 5075 
L 5875 5075 
Q 5850 4825 5850 4425 
Q 5850 4025 5875 3750 
L 2475 3750 
z
M 4100 -400 
Q 4125 -75 4125 200 
L 4125 1975 
L 3175 1975 
L 3175 -575 
L 2675 -575 
Q 2750 -50 2750 400 
L 2750 1550 
Q 2750 1950 2725 2375 
L 4125 2375 
L 4125 2875 
L 3575 2875 
Q 3125 2875 2750 2850 
L 2750 3300 
Q 3125 3275 3575 3275 
L 5150 3275 
Q 5475 3275 5950 3300 
L 5950 2850 
Q 5500 2875 5150 2875 
L 4550 2875 
L 4550 2375 
L 5975 2375 
Q 5950 2025 5950 1600 
L 5950 -25 
Q 5950 -375 5762 -500 
Q 5575 -625 5150 -675 
Q 5125 -400 4975 -125 
Q 5550 -200 5525 125 
L 5525 1975 
L 4550 1975 
L 4550 225 
Q 4550 -125 4575 -400 
L 4100 -400 
z
M 5400 4150 
L 5400 4700 
L 2475 4700 
L 2475 4150 
L 5400 4150 
z
M 1525 1525 
Q 1450 1375 1225 775 
Q 1000 175 775 -450 
Q 575 -300 250 -100 
Q 525 300 737 850 
Q 950 1400 1100 1900 
Q 1325 1650 1525 1525 
z
M 575 3425 
Q 775 3325 1037 3162 
Q 1300 3000 1575 2775 
Q 1400 2575 1275 2350 
Q 1100 2500 850 2675 
Q 600 2850 275 3025 
L 575 3425 
z
M 900 5050 
Q 1075 4925 1337 4687 
Q 1600 4450 1800 4275 
Q 1600 4125 1425 3875 
Q 1300 4075 1062 4300 
Q 825 4525 575 4700 
Q 775 4900 900 5050 
z
M 4950 900 
Q 5175 600 5350 325 
Q 5150 225 5000 100 
Q 4850 375 4600 625 
Q 4750 750 4950 900 
z
M 5025 1725 
Q 5200 1500 5425 1225 
Q 5250 1100 5075 950 
Q 4875 1275 4675 1475 
Q 4825 1600 5025 1725 
z
M 3650 800 
Q 3850 550 4025 250 
Q 3850 150 3675 0 
Q 3525 300 3325 550 
Q 3500 675 3650 800 
z
M 3650 1675 
Q 3800 1475 4025 1150 
Q 3850 1050 3675 925 
Q 3500 1225 3325 1425 
Q 3475 1550 3650 1675 
z
" transform="scale(0.015625)"/>
      <path id="SimHei-6597" d="M 3975 1300 
Q 1275 1025 375 925 
L 350 1425 
Q 950 1450 3975 1725 
L 3975 4225 
Q 3975 4650 3950 5150 
L 4525 5150 
Q 4500 4650 4500 4225 
L 4500 1775 
Q 5550 1875 6100 1975 
L 6150 1500 
Q 5300 1400 4500 1325 
L 4500 225 
Q 4500 -175 4525 -575 
L 3950 -575 
Q 3975 225 3975 1300 
z
M 1975 4675 
Q 2650 4200 3350 3650 
Q 3125 3475 2950 3225 
Q 2300 3775 1625 4300 
Q 1800 4475 1975 4675 
z
M 1300 3425 
Q 2000 2950 2700 2450 
Q 2500 2250 2325 2025 
Q 1625 2575 950 3025 
L 1300 3425 
z
" transform="scale(0.015625)"/>
     </defs>
     <use xlink:href="#SimHei-6d41"/>
     <use xlink:href="#SimHei-91cf" x="100"/>
     <use xlink:href="#SimHei-8f6c" x="200"/>
     <use xlink:href="#SimHei-5316" x="300"/>
     <use xlink:href="#SimHei-6f0f" x="400"/>
     <use xlink:href="#SimHei-6597" x="500"/>
    </g>
   </g>
  </g>
 </g>
 <defs>
  <clipPath id="pff8359292e">
   <rect x="144" y="77.76" width="892.8" height="498.96"/>
  </clipPath>
 </defs>
</svg>
